<svg xmlns="http://www.w3.org/2000/svg" version="1.1" xmlns:xlink="http://www.w3.org/1999/xlink" xmlns:svgjs="http://svgjs.dev/svgjs" width="1000" height="1000"><g clip-path="url(#SvgjsClipPath1084)"><rect width="1000" height="1000" fill="#212121"></rect><g transform="matrix(5.109489051094891,0,0,5.109489051094891,149.99999999999994,221.53284671532845)"><svg xmlns="http://www.w3.org/2000/svg" version="1.1" xmlns:xlink="http://www.w3.org/1999/xlink" xmlns:svgjs="http://svgjs.dev/svgjs" width="137" height="109"><svg width="137" height="109" viewBox="0 0 137 109" fill="none" xmlns="http://www.w3.org/2000/svg">
<path fill-rule="evenodd" clip-rule="evenodd" d="M98.2045 64.3455L131.926 90.0364C134.136 91.8142 135.489 94.0216 135.489 96.658C135.489 99.7852 134.631 102.422 132.847 104.629C131.068 106.836 128.852 108.185 125.722 108.185C123.511 108.185 121.727 106.836 119.949 105.549L81.3125 76.7307L98.2045 64.3455Z" fill="white"></path>
<path fill-rule="evenodd" clip-rule="evenodd" d="M80.8828 31.9717L118.167 3.58307C119.945 1.80494 122.587 0.946533 125.292 0.946533C128.423 0.946533 131.065 2.29545 133.275 4.50278C135.059 6.71011 136.411 8.91744 136.411 12.0445C136.411 13.3934 135.979 14.681 135.059 15.6007C134.195 16.9497 133.275 18.2373 131.923 19.157L98.201 44.8478L80.8828 31.9717Z" fill="white"></path>
<path d="M65.9787 39.3496C57.5014 32.7695 43.2571 22.5527 19.4617 4.7637C15.5014 1.79882 8.62647 -1.02135 3.24011 4.65001C-0.572392 8.65825 -0.879245 15.5486 4.80257 19.3709C23.331 33.1621 34.1435 41.1581 40.4503 45.9201C46.2628 50.3104 48.314 51.8809 48.314 53.8127C48.314 55.5581 46.8253 57.6348 41.8423 61.7774C30.1889 71.5087 8.598 86.9218 4.77414 89.8138C-1.39064 94.628 1.49009 101.188 3.98441 104.215C8.35373 109.504 14.1094 107.872 17.1605 105.517C44.098 85.6615 59.189 75.1553 67.6151 68.5951C76.4106 61.7462 78.1833 59.1434 78.314 54.753C78.4617 50.1144 76.7628 47.707 65.9787 39.3496Z" fill="#0A85CE"></path>
</svg></svg></g></g><defs><clipPath id="SvgjsClipPath1084"><rect width="1000" height="1000" x="0" y="0" rx="200" ry="200"></rect></clipPath></defs></svg>