<svg width="630" height="125" fill="none" xmlns="http://www.w3.org/2000/svg"><path d="M487.716 80.305h9.372c2.455 0 4.409 1.922 4.409 4.28v7.767c0 .718-.58 1.282-1.32 1.282a1.282 1.282 0 0 1-1.294-1.282v-7.767c0-.948-.792-1.717-1.795-1.717h-8.026v9.484c0 .718-.634 1.282-1.32 1.282-.74 0-1.32-.564-1.32-1.282V81.586c0-.717.554-1.256 1.294-1.281Zm56.374 0h10.376c2.403 0 4.33 1.87 4.33 4.203v4.922c0 2.332-1.927 4.204-4.303 4.204h-7.498c-2.403 0-4.33-1.897-4.33-4.204 0-2.358 1.954-4.23 4.356-4.23h9.188v-.692c0-.948-.792-1.691-1.743-1.691h-10.375c-.74 0-1.32-.564-1.32-1.256 0-.692.579-1.256 1.319-1.256Zm1.189 9.125c0 .897.765 1.666 1.716 1.666h7.498c.95 0 1.716-.77 1.716-1.666v-1.692h-9.189c-.977 0-1.741.77-1.741 1.692Z" fill="#fff"/><path fill-rule="evenodd" clip-rule="evenodd" d="M519.822 90.52c.744 0 1.346-.584 1.346-1.306V81.92c0-.994-.83-1.8-1.854-1.8h-7.51c-.744 0-1.347.585-1.347 1.307s.603 1.307 1.346 1.307h5.86c.449 0 .813.354.813.79v5.69c0 .721.603 1.306 1.346 1.306Zm-13.098-8.426c-.763 0-1.346.66-1.346 1.428v8.09c0 1.07.81 1.974 1.854 1.974h8.637c.762 0 1.346-.66 1.346-1.428 0-.77-.584-1.428-1.347-1.428h-6.985a.805.805 0 0 1-.748-.484.805.805 0 0 1-.065-.306v-6.418c0-.77-.583-1.428-1.346-1.428Z" fill="#fff"/><path d="M529.16 80.305h6.496c2.376 0 4.276 1.87 4.276 4.152 0 .718-.58 1.256-1.293 1.256a1.255 1.255 0 0 1-1.267-1.256c0-.897-.792-1.64-1.716-1.64h-6.496c-.924 0-1.69.743-1.69 1.64v7.92c0 .693-.58 1.257-1.294 1.257-.712 0-1.293-.564-1.293-1.256v-7.92c0-2.282 1.927-4.153 4.277-4.153Zm-37.567 25.055h-2.787l-.447 1.32h-1.903l2.701-7.466h2.106l2.701 7.466h-1.924l-.447-1.32Zm-.468-1.403-.926-2.733-.914 2.733h1.84Zm9.352-2.34c0 .433-.1.83-.298 1.191-.199.355-.504.642-.915.862-.411.22-.922.33-1.531.33h-1.128v2.68h-1.819v-7.466h2.947c.595 0 1.099.102 1.51.308.411.206.72.49.925.85.206.362.309.777.309 1.245Zm-2.883.936c.348 0 .607-.081.777-.245.17-.163.255-.393.255-.69 0-.299-.085-.53-.255-.692-.17-.163-.43-.245-.777-.245h-.989v1.872h.99-.001Zm9.52-.936c0 .433-.1.83-.298 1.191-.199.355-.504.642-.915.862-.411.22-.922.33-1.532.33h-1.127v2.68h-1.819v-7.466h2.947c.595 0 1.098.102 1.51.308.411.206.72.49.925.85.206.362.309.777.309 1.245Zm-2.883.936c.348 0 .606-.081.777-.245.17-.163.255-.393.255-.69 0-.299-.085-.53-.255-.692-.17-.163-.43-.245-.777-.245h-.989v1.872h.989Zm6.53 4.201c-.502.008-1-.082-1.467-.266a2.429 2.429 0 0 1-1.042-.787c-.255-.347-.39-.766-.404-1.255h1.935c.029.277.124.49.287.638.163.142.376.213.639.213.269 0 .482-.06.638-.18a.64.64 0 0 0 .234-.522.606.606 0 0 0-.192-.457 1.427 1.427 0 0 0-.457-.298 6.736 6.736 0 0 0-.766-.266 8.44 8.44 0 0 1-1.18-.447 2.182 2.182 0 0 1-.787-.659c-.22-.29-.33-.67-.33-1.138 0-.695.252-1.237.755-1.627.503-.397 1.16-.596 1.968-.596.822 0 1.485.199 1.988.596.504.39.773.936.809 1.638h-1.969a.742.742 0 0 0-.266-.564c-.163-.142-.372-.213-.627-.213-.22 0-.397.06-.532.181-.135.113-.202.28-.202.5 0 .24.113.429.34.564.227.134.582.28 1.064.436a9.47 9.47 0 0 1 1.17.468c.305.148.567.365.787.648.22.284.33.65.33 1.096 0 .425-.11.812-.33 1.16-.213.347-.525.623-.936.829-.411.205-.897.308-1.457.308Z" fill="#fff"/><mask id="a" style="mask-type:luminance" maskUnits="userSpaceOnUse" x="566" y="61" width="52" height="51"><path d="M566.18 61h51.696v50.191H566.18V61Z" fill="#fff"/></mask><g mask="url(#a)"><path d="M592.542 61.834h-.255c-6.658-.086-13.08 2.406-17.85 6.927-4.772 4.522-7.503 10.703-7.594 17.184a23.066 23.066 0 0 0 1.722 9.06 23.563 23.563 0 0 0 5.154 7.731 24.287 24.287 0 0 0 7.801 5.223 24.838 24.838 0 0 0 9.26 1.919l26.206.334.326-23.608c.089-6.482-2.471-12.732-7.116-17.377-4.645-4.647-10.995-7.305-17.654-7.393Z" fill="url(#b)"/><path fill-rule="evenodd" clip-rule="evenodd" d="M602.416 77.941c-4.482 0-8.272 2.867-9.511 6.806l-2.885-2.73c-1.779-2.406-4.692-3.973-7.985-3.973-5.417 0-9.807 4.242-9.807 9.475 0 2.396.92 4.585 2.44 6.254l-.008.003 15.741 16.123 26.57.336.296-22.632-7.836-6.86a10.086 10.086 0 0 0-7.015-2.802Z" fill="#000" fill-opacity=".04"/><path opacity=".11" fill-rule="evenodd" clip-rule="evenodd" d="M568.453 94.696a22.907 22.907 0 0 1-1.61-8.755c.09-6.441 2.804-12.584 7.546-17.078a25.424 25.424 0 0 1 17.762-6.935h.346c6.717.096 12.99 2.695 17.606 7.312 3.389 3.389 5.783 7.73 6.717 12.299-6.521 10.187-17.295 16.796-31.164 16.107-6.017 0-11.852-1.032-17.203-2.95Z" fill="#000" fill-opacity=".04"/><path opacity=".11" fill-rule="evenodd" clip-rule="evenodd" d="M609.388 68.98c-8.044 10.027-20.754 16.528-34.851 16.528-2.712 0-5.218-.225-7.794-.682.445-6.329 3.136-11.364 7.31-15.63 4.743-4.49 11.159-7.135 17.778-7.049h.272c6.494.071 12.708 2.474 17.285 6.833Z" fill="#000" fill-opacity=".04"/><path opacity=".22" fill-rule="evenodd" clip-rule="evenodd" d="M596.103 62.237a32.232 32.232 0 0 1-26.694 13.354 24.984 24.984 0 0 1 4.909-6.628 25.136 25.136 0 0 1 17.835-7.034h.254c1.22.02 2.505.116 3.696.308Z" fill="#000" fill-opacity=".04"/><path opacity=".55" d="M583.095 87.755h7.94v.616c0 1.403-.17 2.645-.51 3.726-.332 1-.892 1.935-1.68 2.806-1.784 1.95-4.053 2.926-6.808 2.926-2.688 0-4.99-.943-6.907-2.83-1.917-1.895-2.875-4.168-2.875-6.821 0-2.71.975-5.008 2.925-6.894 1.95-1.895 4.322-2.843 7.118-2.843 1.502 0 2.904.299 4.207.895 1.244.597 2.468 1.565 3.671 2.903l-2.066 1.923c-1.576-2.04-3.497-3.06-5.762-3.06-2.033 0-3.738.682-5.115 2.044-1.377 1.339-2.066 3.016-2.066 5.032 0 2.08.767 3.793 2.302 5.14 1.436 1.25 2.991 1.875 4.667 1.875 1.428 0 2.71-.468 3.846-1.403 1.137-.944 1.771-2.072 1.904-3.387h-4.791v-2.648Zm9.536.196c0-2.632.993-4.892 2.978-6.781 1.977-1.89 4.352-2.834 7.127-2.834 2.741 0 5.092.953 7.052 2.858 1.969 1.905 2.953 4.194 2.953 6.866 0 2.689-.989 4.97-2.965 6.842-1.986 1.88-4.382 2.822-7.19 2.822-2.483 0-4.714-.836-6.691-2.507-2.176-1.85-3.264-4.27-3.264-7.266Zm2.928.037c0 2.066.714 3.766 2.143 5.098 1.42 1.332 3.061 1.998 4.922 1.998 2.018 0 3.721-.678 5.108-2.035 1.387-1.372 2.081-3.043 2.081-5.013 0-1.994-.685-3.665-2.056-5.014-1.362-1.356-3.048-2.034-5.059-2.034-2.001 0-3.692.678-5.071 2.035-1.379 1.34-2.068 2.995-2.068 4.965Z" fill="#000" fill-opacity=".25"/><path d="M582.714 87.063h7.94v.617c0 1.403-.17 2.645-.51 3.725-.332 1-.892 1.935-1.68 2.806-1.784 1.952-4.053 2.927-6.808 2.927-2.688 0-4.99-.943-6.907-2.83-1.917-1.895-2.875-4.169-2.875-6.822 0-2.709.975-5.007 2.925-6.894 1.95-1.894 4.322-2.842 7.118-2.842 1.502 0 2.904.298 4.207.895 1.244.597 2.468 1.564 3.671 2.903l-2.066 1.923c-1.576-2.04-3.497-3.06-5.762-3.06-2.033 0-3.738.681-5.115 2.044-1.377 1.338-2.066 3.016-2.066 5.031 0 2.08.768 3.794 2.303 5.14 1.435 1.25 2.99 1.875 4.667 1.875 1.427 0 2.709-.467 3.845-1.403 1.137-.943 1.772-2.072 1.904-3.386h-4.791v-2.649Zm9.643.302c0-2.631.993-4.892 2.978-6.781 1.977-1.89 4.353-2.834 7.127-2.834 2.741 0 5.092.953 7.053 2.858 1.968 1.905 2.952 4.194 2.952 6.866 0 2.689-.988 4.97-2.965 6.842-1.985 1.881-4.382 2.822-7.189 2.822-2.484 0-4.714-.836-6.691-2.507-2.176-1.848-3.265-4.27-3.265-7.266Zm2.928.037c0 2.066.715 3.766 2.144 5.098 1.42 1.332 3.061 1.998 4.921 1.998 2.019 0 3.722-.678 5.109-2.034 1.387-1.373 2.08-3.044 2.08-5.014 0-1.994-.685-3.665-2.055-5.014-1.363-1.356-3.049-2.034-5.059-2.034-2.002 0-3.692.678-5.071 2.034-1.379 1.34-2.069 2.996-2.069 4.966Z" fill="#fff"/></g><g clip-path="url(#c)"><path d="M116.313 87.358a.834.834 0 0 1-.814-.498.846.846 0 0 1-.073-.328v-.809a.902.902 0 0 1 .27-.625.888.888 0 0 1 .633-.252h8.32a.52.52 0 0 0 .533-.494 14.627 14.627 0 0 0-.06-1.813c-.062-.355-.462-.72-.783-.908a2.368 2.368 0 0 0-1.153-.247c-2.401 0-4.804.023-7.211.067-.393.024-.78.128-1.141.306a1.3 1.3 0 0 0-.691.58c-.168.287-.246.62-.222.953.02 1.823.02 3.642 0 5.457a1.5 1.5 0 0 0 .203.888c.156.26.385.447.648.53a4.802 4.802 0 0 0 1.557.35c3.235.041 6.468.03 9.708.041.228-.009.455.003.681.036a.875.875 0 0 1 .371.124c.116.07.218.167.3.283.083.117.144.252.18.396.037.145.047.297.031.447.007.155-.014.31-.06.454a1.184 1.184 0 0 1-.211.39c-.089.11-.2.2-.326.264a.876.876 0 0 1-.39.093h-.31c-3.028 0-6.059.048-9.085-.03a11.083 11.083 0 0 1-3.297-.6c-1.76-.602-2.528-1.948-2.538-4.082v-4.88c0-2.06.773-3.336 2.476-3.985a7.197 7.197 0 0 1 2.429-.546c2.632-.043 5.264 0 7.895.09.638.064 1.26.268 1.833.601.477.221.886.6 1.176 1.09.29.49.448 1.07.455 1.663a82.38 82.38 0 0 1 .031 3.371c0 1.28-.296 1.623-1.406 1.623h-9.96.001Zm49.276-8.47c.729 0 1.4.597 1.4 1.331v11.452c0 .762-.671 1.36-1.4 1.36-.813 0-1.429-.598-1.429-1.36V80.22c0-.734.617-1.332 1.429-1.332Zm-1.429-2.585v-.87c0-.762.617-1.36 1.429-1.36.729 0 1.4.598 1.4 1.36v.87c0 .734-.671 1.36-1.4 1.36-.813 0-1.429-.626-1.429-1.36Zm-15.057 2.584h6.893c2.521 0 4.538 1.986 4.538 4.406 0 .762-.616 1.333-1.372 1.333a1.33 1.33 0 0 1-1.345-1.333c0-.952-.84-1.74-1.82-1.74h-6.894c-.98 0-1.793.788-1.793 1.74v8.405c0 .734-.616 1.333-1.373 1.333-.756 0-1.373-.598-1.373-1.333v-8.405c0-2.42 2.045-4.406 4.539-4.406Zm-54.269 0h11.039c.729 0 1.401.625 1.401 1.36 0 .707-.672 1.305-1.4 1.305h-11.04c-1.121 0-1.877.762-1.877 1.55 0 .79.756 1.497 1.876 1.497h7.931c2.689 0 4.762 1.85 4.762 4.19 0 2.31-2.073 4.242-4.763 4.242h-11.15a1.36 1.36 0 0 1-1.373-1.36c0-.763.616-1.334 1.373-1.334h11.151c1.12 0 1.933-.734 1.933-1.55 0-.79-.812-1.497-1.933-1.497h-7.93c-2.69 0-4.65-1.876-4.65-4.188 0-2.34 1.96-4.215 4.65-4.215Zm45.624 11.67-2.874-.918c-1.245-.398-2.104-1.496-2.138-2.735a1.094 1.094 0 0 1 0-.08v-5.225h4.578c.768 0 1.391-.605 1.391-1.35 0-.747-.623-1.35-1.391-1.35h-4.579v-4.054c0-.746-.624-1.35-1.392-1.35-.768 0-1.391.604-1.391 1.35v4.052h-1.341c-.768 0-1.391.605-1.391 1.35 0 .747.623 1.352 1.391 1.352h1.34v5.224c0 .052.001.103.003.154.065 2.375 1.692 4.475 4.051 5.228l2.874.918c.144.046.29.068.435.068.585 0 1.128-.36 1.321-.93.24-.709-.158-1.472-.887-1.705Z" fill="#fff"/><path d="M173.533 79.158a1.383 1.383 0 0 0-.969-.39 1.376 1.376 0 0 0-1.263.819 1.3 1.3 0 0 0 .296 1.45l5.076 4.927-5.076 4.928a1.312 1.312 0 0 0-.401.94 1.3 1.3 0 0 0 .401.94c.258.25.602.388.967.388.367 0 .711-.138.968-.39l5.66-5.495a1.817 1.817 0 0 0 0-2.622l-5.659-5.495Z" fill="#FF5E1F"/><path d="m180.759 84.034-.146-.142a1.207 1.207 0 0 1-.37-.867 1.192 1.192 0 0 1 .37-.866l3.12-3.03a1.331 1.331 0 0 1 1.843 0l.09.087a1.243 1.243 0 0 1 .283 1.382 1.241 1.241 0 0 1-.283.408l-3.12 3.028a1.291 1.291 0 0 1-1.787 0Zm0 3.826-.146.142a1.194 1.194 0 0 0 0 1.734l3.12 3.03a1.33 1.33 0 0 0 1.843 0l.09-.088a1.224 1.224 0 0 0 .381-.894 1.23 1.23 0 0 0-.381-.894l-3.12-3.03a1.294 1.294 0 0 0-1.787 0Z" fill="#fff"/><path d="M97.4 99.724v1.457h-1.98v6.01h-1.818v-6.01h-1.978v-1.457H97.4Zm4.72 7.466-1.553-2.818h-.436v2.818h-1.82v-7.466h3.054c.588 0 1.088.103 1.5.309.418.205.73.489.935.85.206.355.309.752.309 1.192 0 .496-.142.94-.426 1.33-.276.39-.687.666-1.233.829l1.723 2.956h-2.053Zm-1.989-4.105h1.128c.333 0 .581-.081.744-.245.17-.163.255-.393.255-.69 0-.285-.085-.508-.255-.67-.163-.164-.411-.245-.744-.245h-1.128v1.85Zm9.768 2.787h-2.786l-.447 1.318h-1.905l2.703-7.466h2.106l2.701 7.466h-1.925l-.447-1.318Zm-.468-1.404-.925-2.734-.915 2.734h1.84Zm10.342 2.722h-1.818l-3.042-4.605v4.605h-1.82v-7.466h1.82l3.042 4.627v-4.627h1.818v7.466Zm4.021.075a3.838 3.838 0 0 1-1.468-.266 2.43 2.43 0 0 1-1.043-.787c-.255-.348-.39-.766-.404-1.255h1.936c.028.276.124.49.287.638.163.142.376.213.639.213.27 0 .482-.06.638-.181a.637.637 0 0 0 .234-.521.614.614 0 0 0-.191-.458 1.428 1.428 0 0 0-.458-.297 7.15 7.15 0 0 0-.766-.266 8.44 8.44 0 0 1-1.18-.447 2.186 2.186 0 0 1-.788-.66c-.22-.29-.33-.67-.33-1.137 0-.695.252-1.238.756-1.628.503-.397 1.159-.595 1.967-.595.824 0 1.487.198 1.99.595.503.39.773.936.808 1.638h-1.967a.751.751 0 0 0-.266-.563c-.163-.142-.372-.213-.629-.213-.22 0-.397.06-.531.18-.135.114-.203.28-.203.5 0 .242.114.43.34.564.228.135.583.28 1.065.436a9.5 9.5 0 0 1 1.17.468c.305.15.568.366.787.65.22.283.33.648.33 1.095 0 .425-.11.811-.33 1.159-.227.36-.552.648-.936.83-.41.205-.897.308-1.457.308Zm3.534-3.818c0-.738.16-1.394.478-1.968a3.387 3.387 0 0 1 1.33-1.35c.574-.327 1.223-.49 1.946-.49.886 0 1.645.234 2.277.702.631.468 1.053 1.106 1.266 1.914h-2.001a1.6 1.6 0 0 0-.638-.712 1.748 1.748 0 0 0-.925-.245c-.56 0-1.014.195-1.361.585-.348.39-.522.911-.522 1.564 0 .652.174 1.173.522 1.563.347.39.8.585 1.36.585.348 0 .657-.081.926-.245.277-.163.49-.4.638-.712h2.001c-.213.808-.635 1.446-1.266 1.914-.631.461-1.391.692-2.277.692-.723 0-1.372-.16-1.946-.479a3.472 3.472 0 0 1-1.33-1.35c-.319-.575-.478-1.23-.478-1.968Zm11.941 3.818a3.932 3.932 0 0 1-1.935-.49 3.718 3.718 0 0 1-1.393-1.36 3.877 3.877 0 0 1-.51-1.979c0-.73.17-1.386.51-1.968a3.718 3.718 0 0 1 1.393-1.36 3.925 3.925 0 0 1 1.936-.49c.702 0 1.343.163 1.925.49a3.532 3.532 0 0 1 1.383 1.36c.34.582.51 1.238.51 1.968s-.17 1.39-.51 1.978a3.64 3.64 0 0 1-1.383 1.362 3.87 3.87 0 0 1-1.926.489Zm0-1.66c.596 0 1.071-.198 1.426-.595.361-.397.542-.922.542-1.574 0-.66-.18-1.184-.542-1.574-.355-.397-.83-.596-1.425-.596-.603 0-1.085.195-1.447.585-.354.39-.532.919-.532 1.585 0 .66.178 1.188.532 1.585.362.39.844.585 1.447.585l-.001-.001Zm7.629-5.88c.787 0 1.475.155 2.063.467a3.295 3.295 0 0 1 1.361 1.319c.327.56.49 1.209.49 1.946 0 .73-.163 1.38-.49 1.947a3.277 3.277 0 0 1-1.372 1.318c-.588.312-1.272.468-2.052.468h-2.797v-7.466l2.797.001Zm-.117 5.891c.688 0 1.223-.188 1.606-.563.383-.376.574-.908.574-1.596 0-.688-.191-1.223-.574-1.606-.383-.383-.918-.574-1.606-.574h-.862v4.34l.862-.001Zm6.867-4.435v1.51h2.435v1.404h-2.435v1.638h2.755v1.457h-4.574v-7.466h4.573v1.457h-2.754Zm7.744 6.01-1.554-2.819h-.436v2.818h-1.819v-7.466h3.054c.588 0 1.088.103 1.5.309.418.205.73.489.935.85.206.355.309.752.309 1.192 0 .496-.142.94-.426 1.33-.276.39-.688.666-1.234.829l1.723 2.956h-2.052v.001Zm-1.991-4.106h1.129c.334 0 .582-.081.745-.245.17-.163.255-.393.255-.69 0-.285-.085-.508-.255-.67-.163-.164-.411-.245-.745-.245h-1.128l-.001 1.85Z" fill="#FF5E1F"/></g><g clip-path="url(#d)"><path d="M116.313 26.358a.834.834 0 0 1-.814-.498.846.846 0 0 1-.073-.328v-.809a.902.902 0 0 1 .27-.625.888.888 0 0 1 .633-.252h8.32a.52.52 0 0 0 .533-.494 14.627 14.627 0 0 0-.06-1.813c-.062-.355-.462-.72-.783-.908a2.368 2.368 0 0 0-1.153-.247c-2.401 0-4.804.023-7.211.067-.393.024-.78.128-1.141.306a1.3 1.3 0 0 0-.691.58c-.168.287-.246.62-.222.953.02 1.823.02 3.642 0 5.457a1.5 1.5 0 0 0 .203.888c.156.26.385.447.648.53a4.802 4.802 0 0 0 1.557.35c3.235.041 6.468.03 9.708.041.228-.009.455.003.681.036a.875.875 0 0 1 .371.124c.116.07.218.167.3.283.083.117.144.252.18.396.037.145.047.297.031.447.007.155-.014.31-.06.454a1.184 1.184 0 0 1-.211.39c-.089.11-.2.2-.326.264a.876.876 0 0 1-.39.093h-.31c-3.028 0-6.059.048-9.085-.03a11.083 11.083 0 0 1-3.297-.6c-1.76-.602-2.528-1.948-2.538-4.082v-4.88c0-2.06.773-3.336 2.476-3.985a7.197 7.197 0 0 1 2.429-.546c2.632-.043 5.264 0 7.895.09.638.064 1.26.268 1.833.601.477.221.886.6 1.176 1.09.29.49.448 1.07.455 1.663a82.38 82.38 0 0 1 .031 3.371c0 1.28-.296 1.623-1.406 1.623h-9.96.001Zm49.276-8.47c.729 0 1.4.597 1.4 1.331v11.452c0 .762-.671 1.36-1.4 1.36-.813 0-1.429-.598-1.429-1.36V19.22c0-.734.617-1.332 1.429-1.332Zm-1.429-2.585v-.87c0-.762.617-1.36 1.429-1.36.729 0 1.4.598 1.4 1.36v.87c0 .734-.671 1.36-1.4 1.36-.813 0-1.429-.626-1.429-1.36Zm-15.057 2.584h6.893c2.521 0 4.538 1.986 4.538 4.406 0 .762-.616 1.333-1.372 1.333a1.33 1.33 0 0 1-1.345-1.333c0-.952-.84-1.74-1.82-1.74h-6.894c-.98 0-1.793.788-1.793 1.74v8.405c0 .734-.616 1.333-1.373 1.333-.756 0-1.373-.598-1.373-1.333v-8.405c0-2.42 2.045-4.406 4.539-4.406Zm-54.269 0h11.039c.729 0 1.401.625 1.401 1.36 0 .707-.672 1.305-1.4 1.305h-11.04c-1.121 0-1.877.762-1.877 1.55 0 .79.756 1.497 1.876 1.497h7.931c2.689 0 4.762 1.85 4.762 4.19 0 2.31-2.073 4.242-4.763 4.242h-11.15a1.36 1.36 0 0 1-1.373-1.36c0-.763.616-1.334 1.373-1.334h11.151c1.12 0 1.933-.734 1.933-1.55 0-.79-.812-1.497-1.933-1.497h-7.93c-2.69 0-4.65-1.876-4.65-4.188 0-2.34 1.96-4.215 4.65-4.215Zm45.624 11.67-2.874-.918c-1.245-.398-2.104-1.496-2.138-2.735a1.094 1.094 0 0 1 0-.08v-5.225h4.578c.768 0 1.391-.605 1.391-1.35 0-.747-.623-1.35-1.391-1.35h-4.579v-4.054c0-.746-.624-1.35-1.392-1.35-.768 0-1.391.604-1.391 1.35v4.052h-1.341c-.768 0-1.391.605-1.391 1.35 0 .747.623 1.352 1.391 1.352h1.34v5.224c0 .052.001.103.003.154.065 2.375 1.692 4.475 4.051 5.228l2.874.918c.144.046.29.068.435.068.585 0 1.128-.36 1.321-.93.24-.709-.158-1.472-.887-1.705Z" fill="#828282"/><path d="M173.533 18.158a1.383 1.383 0 0 0-.969-.39 1.376 1.376 0 0 0-1.263.819 1.3 1.3 0 0 0 .296 1.45l5.076 4.927-5.076 4.928a1.312 1.312 0 0 0-.401.94 1.3 1.3 0 0 0 .401.94c.258.25.602.388.967.388.367 0 .711-.138.968-.39l5.66-5.495a1.817 1.817 0 0 0 0-2.622l-5.659-5.495Z" fill="#505050"/><path d="m180.759 23.034-.146-.142a1.207 1.207 0 0 1-.37-.866 1.192 1.192 0 0 1 .37-.867l3.12-3.03a1.331 1.331 0 0 1 1.843 0l.09.087a1.243 1.243 0 0 1 .283 1.382 1.241 1.241 0 0 1-.283.408l-3.12 3.028a1.291 1.291 0 0 1-1.787 0Zm0 3.826-.146.142a1.194 1.194 0 0 0 0 1.734l3.12 3.03a1.33 1.33 0 0 0 1.843 0l.09-.088a1.224 1.224 0 0 0 .381-.894 1.23 1.23 0 0 0-.381-.894l-3.12-3.03a1.294 1.294 0 0 0-1.787 0Z" fill="#828282"/><path d="M97.4 38.724v1.457h-1.98v6.01h-1.818v-6.01h-1.978v-1.457H97.4Zm4.72 7.466-1.553-2.818h-.436v2.818h-1.82v-7.466h3.054c.588 0 1.088.103 1.5.31.418.204.73.488.935.85.206.354.309.751.309 1.191 0 .496-.142.94-.426 1.33-.276.39-.687.666-1.233.83l1.723 2.955h-2.053Zm-1.989-4.105h1.128c.333 0 .581-.08.744-.245.17-.163.255-.393.255-.69 0-.285-.085-.508-.255-.67-.163-.164-.411-.245-.744-.245h-1.128v1.85Zm9.768 2.787h-2.786l-.447 1.318h-1.905l2.703-7.466h2.106l2.701 7.466h-1.925l-.447-1.318Zm-.468-1.404-.925-2.734-.915 2.734h1.84Zm10.342 2.722h-1.818l-3.042-4.605v4.605h-1.82v-7.466h1.82l3.042 4.627v-4.627h1.818v7.466Zm4.021.075a3.846 3.846 0 0 1-1.468-.266 2.434 2.434 0 0 1-1.043-.787c-.255-.348-.39-.766-.404-1.255h1.936c.028.276.124.49.287.638.163.142.376.213.639.213.27 0 .482-.06.638-.18a.638.638 0 0 0 .234-.522.61.61 0 0 0-.191-.458 1.423 1.423 0 0 0-.458-.297 6.958 6.958 0 0 0-.766-.266 8.416 8.416 0 0 1-1.18-.447 2.191 2.191 0 0 1-.788-.66c-.22-.29-.33-.67-.33-1.137 0-.695.252-1.238.756-1.628.503-.397 1.159-.595 1.967-.595.824 0 1.487.198 1.99.595.503.39.773.936.808 1.638h-1.967a.753.753 0 0 0-.266-.563c-.163-.142-.372-.213-.629-.213-.22 0-.397.06-.531.18-.135.114-.203.28-.203.5 0 .242.114.43.34.564.228.135.583.28 1.065.436a9.5 9.5 0 0 1 1.17.468c.305.15.568.366.787.65.22.283.33.648.33 1.095 0 .425-.11.811-.33 1.16-.227.36-.552.647-.936.83-.41.204-.897.307-1.457.307Zm3.534-3.818c0-.738.16-1.394.478-1.968a3.385 3.385 0 0 1 1.33-1.35c.574-.327 1.223-.49 1.946-.49.886 0 1.645.234 2.277.702.631.468 1.053 1.106 1.266 1.914h-2.001a1.603 1.603 0 0 0-.638-.712 1.75 1.75 0 0 0-.925-.245c-.56 0-1.014.195-1.361.585-.348.39-.522.911-.522 1.564 0 .652.174 1.173.522 1.563.347.39.8.585 1.36.585.348 0 .657-.08.926-.245.277-.163.49-.4.638-.712h2.001c-.213.808-.635 1.446-1.266 1.914-.631.461-1.391.692-2.277.692-.723 0-1.372-.16-1.946-.479a3.478 3.478 0 0 1-1.33-1.35c-.319-.575-.478-1.23-.478-1.968Zm11.941 3.818a3.927 3.927 0 0 1-1.935-.49 3.715 3.715 0 0 1-1.393-1.36 3.877 3.877 0 0 1-.51-1.979c0-.73.17-1.386.51-1.968a3.715 3.715 0 0 1 1.393-1.36 3.924 3.924 0 0 1 1.936-.49 3.86 3.86 0 0 1 1.925.49 3.532 3.532 0 0 1 1.383 1.36c.34.582.51 1.238.51 1.968s-.17 1.39-.51 1.978a3.639 3.639 0 0 1-1.383 1.362 3.868 3.868 0 0 1-1.926.49Zm0-1.66c.596 0 1.071-.198 1.426-.595.361-.397.542-.922.542-1.574 0-.66-.18-1.184-.542-1.574-.355-.397-.83-.596-1.425-.596-.603 0-1.085.195-1.447.585-.354.39-.532.92-.532 1.585 0 .66.178 1.188.532 1.585.362.39.844.585 1.447.585h-.001Zm7.629-5.88c.787 0 1.475.155 2.063.467a3.292 3.292 0 0 1 1.361 1.32c.327.56.49 1.208.49 1.945 0 .73-.163 1.38-.49 1.947a3.278 3.278 0 0 1-1.372 1.318c-.588.312-1.272.468-2.052.468h-2.797v-7.466l2.797.001Zm-.117 5.891c.688 0 1.223-.188 1.606-.563.383-.376.574-.908.574-1.596 0-.688-.191-1.223-.574-1.606-.383-.383-.918-.574-1.606-.574h-.862v4.34h.862Zm6.867-4.435v1.51h2.435v1.404h-2.435v1.638h2.755v1.457h-4.574v-7.466h4.573v1.457h-2.754Zm7.744 6.01-1.554-2.819h-.436v2.818h-1.819v-7.466h3.054c.588 0 1.088.103 1.5.31.418.204.73.488.935.85.206.354.309.751.309 1.191 0 .496-.142.94-.426 1.33-.276.39-.688.666-1.234.83l1.723 2.955h-2.052v.001Zm-1.991-4.106h1.129c.334 0 .582-.08.745-.245.17-.163.255-.393.255-.69 0-.285-.085-.508-.255-.67-.163-.164-.411-.245-.745-.245h-1.128l-.001 1.85Z" fill="#505050"/></g><path d="M287.601 80.35h4.288c2.145 0 3.837 1.687 3.837 3.725v6.596c0 .592-.496 1.074-1.15 1.074-.633 0-1.13-.482-1.13-1.074v-6.596c0-.81-.654-1.468-1.557-1.468h-4.288c-.812 0-1.467.658-1.467 1.468v6.596c0 .504-.406.899-.88 1.03-.136.066-.226.044-.339.044-.632 0-1.128-.482-1.128-1.074v-6.596c0-.81-.655-1.468-1.512-1.468h-4.108c-.813 0-1.49.658-1.49 1.468v6.596c0 .592-.564 1.074-1.15 1.074-.633 0-1.107-.482-1.107-1.074v-6.596c0-2.038 1.67-3.725 3.747-3.725h4.108c1.083 0 2.008.482 2.663 1.14.722-.68 1.602-1.14 2.663-1.14Zm-29.07 0h8.87c2.054 0 3.702 1.6 3.702 3.594v4.207c0 1.994-1.648 3.594-3.68 3.594h-6.409c-2.054 0-3.701-1.621-3.701-3.594 0-2.015 1.67-3.615 3.724-3.615h7.854v-.592c0-.811-.677-1.446-1.49-1.446h-8.87c-.631 0-1.128-.483-1.128-1.074 0-.592.496-1.074 1.128-1.074Zm1.016 7.8c0 .768.654 1.425 1.467 1.425h6.41c.812 0 1.467-.657 1.467-1.424v-1.446h-7.855c-.835 0-1.49.657-1.49 1.446l.001-.001Zm-14.853-.994a.678.678 0 0 1-.714-.665v-.65c0-.39.325-.706.726-.706h6.694a.422.422 0 0 0 .428-.398c.015-.486-.001-.974-.047-1.458-.05-.285-.372-.58-.63-.73a1.902 1.902 0 0 0-.928-.2c-1.932 0-3.865.019-5.8.054-.316.02-.627.104-.918.247a1.048 1.048 0 0 0-.556.465c-.136.232-.199.5-.18.768.017 1.467.017 2.93 0 4.39-.019.253.039.506.164.714a.951.951 0 0 0 .521.427c.404.164.826.258 1.253.28 2.601.034 5.203.024 7.809.034.183-.007.365.003.546.03a.696.696 0 0 1 .3.099.814.814 0 0 1 .24.227 1.006 1.006 0 0 1 .17.679c.005.124-.012.248-.05.365a.964.964 0 0 1-.168.314.806.806 0 0 1-.262.212.703.703 0 0 1-.313.076h-.25c-2.435 0-4.874.038-7.308-.025a8.922 8.922 0 0 1-2.652-.483c-1.415-.483-2.033-1.567-2.041-3.283v-3.926c0-1.658.622-2.684 1.992-3.206a5.789 5.789 0 0 1 1.954-.44c2.117-.034 4.234 0 6.35.073a3.655 3.655 0 0 1 1.475.483c.383.178.712.483.945.877.234.394.36.86.366 1.337.033.905.029 1.809.025 2.713 0 1.03-.238 1.305-1.132 1.305h-8.009Zm-15.913-6.806h5.553c2.03 0 3.656 1.6 3.656 3.55 0 .614-.497 1.074-1.106 1.074-.587 0-1.083-.46-1.083-1.074 0-.767-.677-1.402-1.467-1.402h-5.554c-.79 0-1.444.635-1.444 1.402v6.77c0 .593-.497 1.075-1.106 1.075-.61 0-1.106-.482-1.106-1.074V83.9c0-1.95 1.649-3.55 3.657-3.55Zm-28.997 0h8.893c.586 0 1.128.504 1.128 1.096 0 .57-.541 1.052-1.128 1.052h-8.893c-.903 0-1.512.613-1.512 1.249 0 .635.61 1.205 1.512 1.205h6.387c2.167 0 3.837 1.49 3.837 3.375 0 1.862-1.67 3.419-3.837 3.419h-8.981c-.61 0-1.106-.483-1.106-1.096 0-.614.496-1.074 1.106-1.074h8.982c.903 0 1.558-.592 1.558-1.25 0-.634-.655-1.204-1.558-1.204h-6.388c-2.167 0-3.747-1.512-3.747-3.375 0-1.885 1.58-3.397 3.747-3.397Zm150.075-3.25v13.557c0 .61.51 1.106 1.14 1.106.63 0 1.14-.495 1.14-1.106V77.1c0-.613-.541-1.096-1.128-1.096-.655 0-1.152.483-1.152 1.096Zm-47.446 13.335a.72.72 0 0 1 .729-.71h5.271c1.251-.077 1.668-.56 1.668-1.998V83.98c.013-.16.017-.304-.013-.453a1.267 1.267 0 0 0-.164-.41.898.898 0 0 0-.274-.273 1.17 1.17 0 0 0-.382-.187 4.52 4.52 0 0 0-1.422-.27c-1.668 0-3.361 0-5.041.039-.266.01-.531.064-.784.16-.292.1-.543.296-.71.556-.173.276-.226.585-.215.92v9.898c0 .83-.342 1.226-1.025 1.22a.754.754 0 0 1-.386-.04.847.847 0 0 1-.331-.23.992.992 0 0 1-.211-.375 1.136 1.136 0 0 1-.048-.445V83.47a2.869 2.869 0 0 1 .416-1.553c.281-.452.68-.787 1.139-.953a6.368 6.368 0 0 1 2.272-.574c1.91-.056 3.82-.003 5.726.08.124.005.248.016.37.035a5.233 5.233 0 0 1 1.743.604c.402.178.748.493.991.903.244.41.374.897.372 1.396.034 1.708.038 3.418 0 5.127a3.103 3.103 0 0 1-.514 1.725c-.332.493-.797.844-1.32.997-.667.26-1.37.411-2.085.45-1.37.045-3.837.03-5.052.026a.71.71 0 0 1-.718-.698l-.002-.6Zm-80.791-.69-2.314-.738c-1.003-.32-1.695-1.205-1.722-2.202v-4.273h3.687c.619 0 1.12-.488 1.12-1.088 0-.601-.501-1.088-1.12-1.088h-3.687v-3.264c0-.6-.502-1.088-1.12-1.088-.62 0-1.121.487-1.121 1.088v3.264h-1.08c-.619 0-1.12.487-1.12 1.088 0 .6.501 1.088 1.12 1.088h1.08v4.207l.001.124c.052 1.912 1.363 3.604 3.262 4.21l2.315.74c.116.037.234.054.35.054.471 0 .909-.29 1.064-.748a1.08 1.08 0 0 0-.715-1.373Z" fill="#fff"/><path fill-rule="evenodd" clip-rule="evenodd" d="M328.045 89.238c.635 0 1.149-.5 1.149-1.117v-6.227c0-.85-.709-1.538-1.583-1.538h-6.414c-.636 0-1.15.5-1.15 1.116 0 .617.514 1.117 1.15 1.117h5.004c.383 0 .694.301.694.674v4.858c0 .617.515 1.117 1.15 1.117Z" fill="#6725F5"/><path fill-rule="evenodd" clip-rule="evenodd" d="M316.857 81.92c-.652 0-1.15.563-1.15 1.22v6.908c0 .915.692 1.686 1.583 1.686h7.376c.651 0 1.15-.438 1.15-1.094 0-.657-.499-1.107-1.15-1.107H318.7a.679.679 0 0 1-.637-.414.672.672 0 0 1-.056-.261V83.14c0-.657-.499-1.22-1.15-1.22Z" fill="#fff"/><path fill-rule="evenodd" clip-rule="evenodd" d="M345.117 89.238c.635 0 1.15-.5 1.15-1.117v-6.227c0-.85-.709-1.538-1.584-1.538h-6.414c-.635 0-1.15.5-1.15 1.116 0 .617.515 1.117 1.15 1.117h5.004c.384 0 .694.301.694.674v4.858c0 .617.515 1.117 1.15 1.117Z" fill="#6725F5"/><path fill-rule="evenodd" clip-rule="evenodd" d="M333.931 81.92c-.651 0-1.15.563-1.15 1.22v6.908c0 .915.692 1.686 1.584 1.686h7.375c.652 0 1.15-.438 1.15-1.094 0-.657-.498-1.107-1.15-1.107h-5.965a.687.687 0 0 1-.638-.414.673.673 0 0 1-.056-.261V83.14c0-.657-.498-1.22-1.15-1.22Z" fill="#fff"/><path d="M196.799 103.447c0-.737.16-1.393.478-1.967a3.377 3.377 0 0 1 1.33-1.351c.574-.326 1.223-.49 1.946-.49.886 0 1.645.235 2.276.703.631.468 1.053 1.106 1.266 1.914h-2a1.603 1.603 0 0 0-.638-.713 1.75 1.75 0 0 0-.925-.244c-.56 0-1.014.195-1.361.585-.348.39-.522.91-.522 1.563 0 .652.174 1.174.522 1.564.347.39.8.585 1.36.585.348 0 .657-.082.926-.245.277-.163.49-.4.638-.713h2c-.213.809-.635 1.447-1.266 1.915-.63.46-1.39.691-2.276.691-.723 0-1.372-.16-1.946-.478a3.482 3.482 0 0 1-1.33-1.351c-.319-.575-.478-1.23-.478-1.968Zm11.207-3.722c.787 0 1.475.156 2.063.468a3.3 3.3 0 0 1 1.361 1.319c.327.56.49 1.208.49 1.946 0 .73-.163 1.379-.49 1.946a3.291 3.291 0 0 1-1.372 1.319c-.588.312-1.272.468-2.052.468h-2.797v-7.466h2.797Zm-.117 5.892c.688 0 1.223-.188 1.606-.564.383-.376.574-.907.574-1.595s-.191-1.223-.574-1.606c-.383-.383-.918-.574-1.606-.574h-.862v4.339h.862Zm11.726 1.574h-1.818l-3.042-4.605v4.605h-1.819v-7.466h1.819l3.042 4.626v-4.626h1.818v7.466Z" fill="#6725F5"/><path d="M451.882 77.244c.62 0 1.194.51 1.194 1.136v9.76c0 .65-.573 1.16-1.194 1.16-.693 0-1.218-.51-1.218-1.16v-9.76c0-.626.525-1.136 1.218-1.136Zm-1.218-2.203V74.3c0-.65.525-1.16 1.218-1.16.62 0 1.194.51 1.194 1.16v.742c0 .626-.573 1.16-1.194 1.16-.693 0-1.218-.534-1.218-1.16Zm-14.477 3.34V91.32c0 2.156-1.791 3.872-3.989 3.872h-8.238c-.693 0-1.218-.51-1.218-1.137 0-.672.525-1.182 1.218-1.182h8.238c.86 0 1.577-.696 1.577-1.553v-2.342a4.442 4.442 0 0 1-1.577.324h-6.495c-2.221 0-3.988-1.738-3.988-3.872v-7.048c0-.65.501-1.16 1.194-1.16.62 0 1.194.51 1.194 1.16v7.048c0 .835.716 1.554 1.6 1.554h6.495c.86 0 1.577-.719 1.577-1.554v-7.048c0-.65.525-1.16 1.218-1.16.62 0 1.194.51 1.194 1.16Zm-20.207-5.766v15.516c0 .647.54 1.17 1.206 1.17.666 0 1.206-.523 1.206-1.17V72.616c0-.65-.573-1.16-1.194-1.16-.692 0-1.218.51-1.218 1.16Zm-16.401 4.63h9.385c2.173 0 3.916 1.693 3.916 3.803V85.5c0 2.11-1.743 3.803-3.892 3.803h-6.782c-2.174 0-3.917-1.716-3.917-3.803 0-2.133 1.767-3.825 3.94-3.825h8.31v-.626c0-.858-.715-1.53-1.575-1.53h-9.385c-.669 0-1.194-.51-1.194-1.137 0-.626.525-1.136 1.194-1.136Zm1.074 8.254c0 .812.693 1.507 1.553 1.507h6.782c.86 0 1.552-.695 1.552-1.507v-1.53h-8.31c-.884 0-1.577.695-1.577 1.53Zm-18.245-8.254h8.478c2.221 0 3.988 1.74 3.988 3.872v7.025c0 .65-.525 1.16-1.194 1.16a1.162 1.162 0 0 1-1.17-1.16v-7.025c0-.858-.716-1.553-1.624-1.553h-7.26v8.578c0 .65-.573 1.16-1.194 1.16-.668 0-1.194-.51-1.194-1.16v-9.738c0-.649.502-1.136 1.17-1.159Zm-17.982 0h9.386c2.173 0 3.916 1.693 3.916 3.803V85.5c0 2.11-1.743 3.803-3.893 3.803h-6.782c-2.173 0-3.916-1.716-3.916-3.803 0-2.133 1.767-3.825 3.94-3.825h8.31v-.626c0-.858-.716-1.53-1.575-1.53h-9.386c-.668 0-1.194-.51-1.194-1.137 0-.626.526-1.136 1.194-1.136Zm1.075 8.255c0 .812.692 1.507 1.552 1.507h6.782c.86 0 1.553-.695 1.553-1.507v-1.53h-8.31c-.885 0-1.577.695-1.577 1.53Z" fill="#fff"/><path fill-rule="evenodd" clip-rule="evenodd" d="M456.304 89.125a.98.98 0 0 1-.224-1.096.977.977 0 0 1 .224-.324l4.073-3.954a.427.427 0 0 0 .134-.315.438.438 0 0 0-.134-.315l-4.073-3.955a.98.98 0 0 1-.224-1.096.977.977 0 0 1 .224-.324 1.058 1.058 0 0 1 1.462 0l4.804 4.664a1.423 1.423 0 0 1 0 2.051l-4.804 4.664a1.054 1.054 0 0 1-1.462 0Z" fill="#3CB043"/><path fill-rule="evenodd" clip-rule="evenodd" d="M468.649 89.125a.98.98 0 0 0 .224-1.096.977.977 0 0 0-.224-.324l-3.151-3.058a.845.845 0 0 0-1.169 0l-.293.284a.77.77 0 0 0-.242.568.779.779 0 0 0 .242.567l3.151 3.06a1.054 1.054 0 0 0 1.462 0Zm-4.32-6.9a.842.842 0 0 0 1.169 0l3.151-3.06a.99.99 0 0 0 .223-1.095.99.99 0 0 0-.223-.324 1.058 1.058 0 0 0-1.462 0l-3.151 3.06a.77.77 0 0 0-.242.568.779.779 0 0 0 .242.567l.293.284Z" fill="#fff"/><path d="M442.772 79.23v6.435c-.002.25.073.492.21.684.138.192.33.321.542.366a13.57 13.57 0 0 0 1.813.305c.294.04.598 0 .88.03a.71.71 0 0 1 .332.094.825.825 0 0 1 .268.247.98.98 0 0 1 .154.354c.028.13.032.265.011.396 0 .627-.295 1.055-.836 1.02a16.18 16.18 0 0 1-3.322-.51c-1.548-.479-2.2-1.626-2.2-3.465v-5.095c0-.906.036-.84-.7-.85-.65 0-.923-.29-.963-.922-.044-.76.251-1.13.915-1.157h.748v-2.415c0-.942.361-1.32 1.175-1.273a.767.767 0 0 1 .377.048c.125.05.236.128.325.228.093.102.165.227.211.364.047.138.067.287.06.435v2.588h3.436c.677 0 .985.33.994 1.02.009.686-.286 1.06-.999 1.07h-2.793l-.637.004h-.001Z" fill="#fff"/><path d="m369.953 107.19-.446-1.318h-2.787l-.447 1.319h-1.903l2.701-7.466h2.106l2.701 7.466h-1.925v-.001Zm-.914-2.722-.926-2.733-.914 2.733h1.84Zm8.522-4.743h1.819v7.466h-1.82l-3.042-4.605v4.605h-1.817v-7.466h1.818l3.042 4.626v-4.626Zm8.232 7.466-.447-1.319h-2.787l-.446 1.319h-1.904l2.701-7.466h2.106l2.702 7.466h-1.925Zm-.915-2.723-.925-2.733-.915 2.733h1.84Zm3.662-4.743h1.819v6.062h2.382v1.404h-4.201v-7.466Zm7.068 4.998-2.585-4.998h2.064l1.446 3.127 1.436-3.127h2.042l-2.584 4.998v2.468h-1.82v-2.468h.001Zm4.732-3.541v-1.457h5.775v1.457h-1.978v6.009h-1.82v-6.01l-1.977.001Zm6.688 6.009v-7.466h1.818v7.466h-1.818Zm2.828-3.744c0-2.233 1.553-3.807 3.754-3.807 1.776 0 3.117 1 3.542 2.616h-2c-.308-.638-.872-.957-1.563-.957-1.117 0-1.883.83-1.883 2.148 0 1.319.766 2.149 1.883 2.149.691 0 1.255-.32 1.563-.958h2c-.425 1.617-1.766 2.606-3.542 2.606-2.201 0-3.754-1.563-3.754-3.797Zm13.834 1.521c0 1.255-.979 2.297-2.723 2.297-1.606 0-2.86-.797-2.914-2.308h1.936c.053.575.414.851.925.851.532 0 .872-.266.872-.702 0-1.382-3.733-.638-3.712-3.286 0-1.415 1.16-2.202 2.723-2.202 1.627 0 2.723.809 2.797 2.234h-1.968c-.031-.479-.372-.766-.861-.777-.436-.01-.766.213-.766.681 0 1.298 3.691.713 3.691 3.212Z" fill="#3CB043"/><path d="M287.6 19.352h4.287c2.145 0 3.837 1.687 3.837 3.725v6.596c0 .59-.496 1.074-1.15 1.074-.633 0-1.13-.483-1.13-1.074v-6.596c0-.811-.654-1.468-1.557-1.468H287.6c-.812 0-1.467.657-1.467 1.468v6.596c0 .504-.406.898-.88 1.03-.135.065-.226.044-.339.044-.632 0-1.128-.483-1.128-1.074v-6.596c0-.811-.655-1.468-1.512-1.468h-4.108c-.813 0-1.49.657-1.49 1.468v6.596c0 .59-.564 1.074-1.15 1.074-.633 0-1.107-.483-1.107-1.074v-6.596c0-2.038 1.67-3.725 3.747-3.725h4.108c1.083 0 2.008.482 2.663 1.14.722-.68 1.602-1.14 2.663-1.14Zm-29.07 0h8.87c2.053 0 3.7 1.6 3.7 3.593v4.208c0 1.994-1.647 3.594-3.678 3.594h-6.41c-2.054 0-3.702-1.622-3.702-3.594 0-2.016 1.67-3.616 3.724-3.616h7.855v-.592c0-.81-.677-1.446-1.49-1.446h-8.87c-.631 0-1.128-.482-1.128-1.073 0-.593.497-1.074 1.129-1.074Zm1.014 7.8c0 .767.655 1.425 1.468 1.425h6.41c.812 0 1.467-.658 1.467-1.425v-1.446h-7.855c-.835 0-1.49.658-1.49 1.446Zm-14.852-.998a.678.678 0 0 1-.714-.665v-.65c0-.39.325-.706.727-.706h6.692a.422.422 0 0 0 .428-.398 11.65 11.65 0 0 0-.047-1.46c-.05-.284-.372-.58-.63-.73a1.9 1.9 0 0 0-.928-.197c-1.932 0-3.865.018-5.8.053-.316.02-.627.103-.918.246-.235.084-.432.25-.556.466-.136.232-.198.499-.18.767.017 1.467.017 2.93 0 4.39-.019.253.039.506.164.715a.95.95 0 0 0 .521.426c.404.164.826.259 1.253.28 2.602.034 5.203.025 7.809.034.183-.007.365.003.546.03a.7.7 0 0 1 .3.1.803.803 0 0 1 .24.227 1.002 1.002 0 0 1 .17.678 1.023 1.023 0 0 1-.218.68.802.802 0 0 1-.262.21.703.703 0 0 1-.313.077h-.25c-2.435 0-4.874.039-7.308-.024a8.919 8.919 0 0 1-2.652-.483c-1.415-.484-2.033-1.567-2.041-3.283V23.01c0-1.658.622-2.683 1.992-3.205a5.789 5.789 0 0 1 1.954-.44c2.117-.034 4.234 0 6.35.072.521.054 1.024.219 1.475.484.383.177.712.483.945.877.234.394.36.86.366 1.337.033.904.029 1.808.025 2.713 0 1.03-.238 1.305-1.132 1.305h-8.008Zm-15.912-6.802h5.552c2.03 0 3.656 1.6 3.656 3.55 0 .613-.497 1.073-1.106 1.073-.587 0-1.083-.46-1.083-1.074 0-.767-.677-1.402-1.467-1.402h-5.553c-.79 0-1.444.636-1.444 1.402v6.772c0 .59-.497 1.074-1.106 1.074-.61 0-1.106-.483-1.106-1.074v-6.771c0-1.95 1.649-3.55 3.657-3.55Zm-28.998 0h8.893c.586 0 1.128.503 1.128 1.095 0 .57-.541 1.052-1.128 1.052h-8.893c-.903 0-1.512.614-1.512 1.25 0 .635.61 1.205 1.512 1.205h6.387c2.167 0 3.837 1.49 3.837 3.374 0 1.863-1.67 3.419-3.837 3.419h-8.982c-.61 0-1.106-.482-1.106-1.096 0-.613.496-1.073 1.106-1.073h8.982c.903 0 1.558-.592 1.558-1.25 0-.635-.655-1.204-1.558-1.204h-6.387c-2.167 0-3.747-1.512-3.747-3.375 0-1.886 1.58-3.397 3.747-3.397ZM349.857 16.1v13.556c0 .61.511 1.107 1.14 1.107.63 0 1.14-.496 1.14-1.107V16.1c0-.614-.541-1.096-1.128-1.096-.655 0-1.152.482-1.152 1.096ZM302.41 29.437a.72.72 0 0 1 .729-.71h5.271c1.251-.078 1.668-.56 1.668-2v-3.746a1.58 1.58 0 0 0-.013-.452 1.25 1.25 0 0 0-.164-.411.897.897 0 0 0-.274-.273 1.168 1.168 0 0 0-.382-.186 4.525 4.525 0 0 0-1.422-.27c-1.668 0-3.361 0-5.041.038-.266.01-.53.064-.784.16-.292.1-.543.297-.71.557-.173.275-.226.584-.215.92v9.897c0 .83-.342 1.226-1.025 1.222a.755.755 0 0 1-.386-.04.85.85 0 0 1-.331-.232 1.022 1.022 0 0 1-.211-.375 1.131 1.131 0 0 1-.048-.444V22.47a2.869 2.869 0 0 1 .416-1.553c.281-.452.68-.786 1.139-.952a6.371 6.371 0 0 1 2.272-.575c1.91-.056 3.82-.003 5.726.08.124.006.248.017.371.036a5.227 5.227 0 0 1 1.742.604c.402.178.748.492.991.903.244.41.374.897.372 1.395.034 1.709.038 3.418 0 5.127a3.106 3.106 0 0 1-.514 1.726c-.332.492-.797.843-1.32.997-.667.26-1.37.41-2.085.449-1.37.046-3.837.03-5.052.027a.708.708 0 0 1-.718-.7l-.002-.597Zm-80.79-.691-2.314-.74c-1.003-.32-1.695-1.204-1.722-2.202V21.53h3.687c.619 0 1.12-.487 1.12-1.088 0-.6-.501-1.088-1.12-1.088h-3.687v-3.263c0-.601-.502-1.088-1.12-1.088-.62 0-1.121.487-1.121 1.088v3.263h-1.08c-.619 0-1.12.487-1.12 1.088 0 .6.501 1.088 1.12 1.088h1.08v4.207l.001.124c.052 1.913 1.363 3.605 3.262 4.21l2.315.74c.116.037.234.055.35.055.471 0 .909-.29 1.064-.75a1.075 1.075 0 0 0-.337-1.169 1.083 1.083 0 0 0-.378-.202Z" fill="#505050"/><path fill-rule="evenodd" clip-rule="evenodd" d="M328.042 28.237c.635 0 1.149-.5 1.149-1.116v-6.228c0-.849-.709-1.538-1.583-1.538h-6.414c-.635 0-1.15.5-1.15 1.117 0 .616.515 1.116 1.15 1.116h5.004c.383 0 .694.302.694.674v4.859c0 .616.515 1.116 1.15 1.116Zm-11.187-7.315c-.652 0-1.15.563-1.15 1.22v6.907c0 .915.692 1.687 1.583 1.687h7.376c.651 0 1.15-.438 1.15-1.095 0-.656-.499-1.107-1.15-1.107h-5.965a.68.68 0 0 1-.638-.413.671.671 0 0 1-.056-.261v-5.718c0-.657-.499-1.22-1.15-1.22Zm28.26 7.315c.635 0 1.15-.5 1.15-1.116v-6.228c0-.849-.709-1.538-1.584-1.538h-6.414c-.635 0-1.15.5-1.15 1.117 0 .616.515 1.116 1.15 1.116h5.004c.384 0 .694.302.694.674v4.859c0 .616.515 1.116 1.15 1.116Zm-11.186-7.315c-.651 0-1.15.563-1.15 1.22v6.907c0 .915.693 1.687 1.584 1.687h7.375c.652 0 1.15-.438 1.15-1.095 0-.656-.498-1.107-1.15-1.107h-5.965a.68.68 0 0 1-.638-.413.671.671 0 0 1-.056-.261v-5.718c0-.657-.498-1.22-1.15-1.22Z" fill="#505050"/><path d="M196.797 42.448c0-.738.16-1.394.478-1.968a3.385 3.385 0 0 1 1.33-1.35c.574-.327 1.223-.49 1.946-.49.886 0 1.645.234 2.276.702.631.468 1.053 1.106 1.266 1.915h-2a1.605 1.605 0 0 0-.638-.713c-.28-.166-.6-.25-.925-.245-.56 0-1.014.195-1.361.585-.348.39-.522.91-.522 1.564 0 .652.174 1.173.522 1.563.347.39.8.585 1.36.585.348 0 .657-.081.926-.245.277-.163.49-.4.638-.712h2c-.213.808-.635 1.446-1.266 1.914-.63.46-1.39.692-2.276.692-.723 0-1.372-.16-1.946-.48a3.478 3.478 0 0 1-1.33-1.35c-.319-.574-.478-1.23-.478-1.967Zm11.207-3.723c.787 0 1.475.156 2.063.468a3.3 3.3 0 0 1 1.361 1.319c.327.56.49 1.209.49 1.946 0 .73-.163 1.38-.49 1.947a3.284 3.284 0 0 1-1.372 1.318c-.588.312-1.272.468-2.052.468h-2.797v-7.466h2.797Zm-.117 5.892c.688 0 1.223-.188 1.606-.563.383-.376.574-.908.574-1.596 0-.688-.191-1.223-.574-1.606-.383-.383-.918-.574-1.606-.574h-.862v4.34l.862-.001Zm11.726 1.574h-1.818l-3.042-4.605v4.605h-1.819v-7.466h1.819l3.042 4.627v-4.627h1.818v7.466ZM451.883 16.244c.62 0 1.194.51 1.194 1.137v9.76c0 .65-.573 1.16-1.194 1.16-.693 0-1.218-.51-1.218-1.16v-9.76c0-.626.525-1.137 1.218-1.137Zm-1.218-2.202V13.3c0-.65.525-1.16 1.218-1.16.62 0 1.194.51 1.194 1.16v.742c0 .626-.573 1.16-1.194 1.16-.693 0-1.218-.534-1.218-1.16Zm-14.478 3.34V30.32c0 2.156-1.791 3.872-3.989 3.872h-8.238c-.693 0-1.218-.51-1.218-1.136 0-.673.525-1.183 1.218-1.183h8.238c.86 0 1.577-.696 1.577-1.553v-2.342a4.438 4.438 0 0 1-1.577.324h-6.495c-2.221 0-3.988-1.738-3.988-3.872v-7.048c0-.65.501-1.16 1.194-1.16.62 0 1.194.51 1.194 1.16v7.048c0 .835.716 1.554 1.6 1.554h6.495c.86 0 1.577-.719 1.577-1.554v-7.048c0-.65.525-1.16 1.218-1.16.62 0 1.194.51 1.194 1.16Zm-20.205-5.766v15.516c0 .647.54 1.17 1.206 1.17.666 0 1.206-.523 1.206-1.17V11.617c0-.65-.573-1.16-1.194-1.16-.692 0-1.218.509-1.218 1.159Zm-16.4 4.63h9.385c2.173 0 3.916 1.693 3.916 3.803V24.5c0 2.11-1.743 3.803-3.892 3.803h-6.783c-2.173 0-3.916-1.716-3.916-3.803 0-2.133 1.767-3.825 3.94-3.825h8.31v-.627c0-.857-.716-1.53-1.575-1.53h-9.385c-.67 0-1.194-.51-1.194-1.136 0-.626.525-1.136 1.194-1.136Zm1.074 8.254c0 .812.693 1.507 1.552 1.507h6.783c.86 0 1.552-.695 1.552-1.507v-1.53h-8.31c-.884 0-1.577.696-1.577 1.53Zm-18.246-8.254h8.477c2.221 0 3.988 1.739 3.988 3.872v7.025c0 .65-.525 1.16-1.194 1.16a1.16 1.16 0 0 1-1.17-1.16v-7.025c0-.858-.716-1.553-1.624-1.553h-7.26v8.578c0 .65-.573 1.16-1.194 1.16-.668 0-1.194-.51-1.194-1.16v-9.738c0-.649.503-1.136 1.171-1.159Zm-17.983 0h9.385c2.174 0 3.917 1.693 3.917 3.803V24.5c0 2.11-1.743 3.803-3.893 3.803h-6.782c-2.173 0-3.916-1.716-3.916-3.803 0-2.133 1.767-3.825 3.94-3.825h8.31v-.627c0-.857-.716-1.53-1.576-1.53h-9.385c-.668 0-1.194-.51-1.194-1.136 0-.626.526-1.136 1.194-1.136Zm1.075 8.254c0 .812.692 1.507 1.552 1.507h6.782c.86 0 1.553-.695 1.553-1.507v-1.53h-8.311c-.884 0-1.576.696-1.576 1.53Z" fill="#505050"/><path fill-rule="evenodd" clip-rule="evenodd" d="M456.306 28.126a.977.977 0 0 1-.303-.71.985.985 0 0 1 .303-.71l4.073-3.954a.441.441 0 0 0 .099-.486.442.442 0 0 0-.099-.144l-4.073-3.955a.977.977 0 0 1-.303-.71.985.985 0 0 1 .303-.71 1.058 1.058 0 0 1 1.462 0l4.804 4.664a1.423 1.423 0 0 1 0 2.051l-4.804 4.664a1.056 1.056 0 0 1-1.462 0Zm12.342 0a.977.977 0 0 0 .303-.71.985.985 0 0 0-.303-.71l-3.151-3.058a.844.844 0 0 0-1.169 0l-.293.284a.802.802 0 0 0-.242.568.797.797 0 0 0 .242.567l3.151 3.06a1.058 1.058 0 0 0 1.462 0v-.001Zm-4.32-6.9a.845.845 0 0 0 1.169 0l3.151-3.06a.978.978 0 0 0 .224-1.095.979.979 0 0 0-.224-.324 1.056 1.056 0 0 0-1.462 0l-3.151 3.06a.802.802 0 0 0-.242.568.797.797 0 0 0 .242.567l.293.284Z" fill="#505050"/><path d="M442.773 18.232v6.434c0 .25.074.491.212.683a.895.895 0 0 0 .54.366c.6.144 1.205.246 1.814.306.294.04.598 0 .88.03a.707.707 0 0 1 .332.094.825.825 0 0 1 .268.247.98.98 0 0 1 .154.354c.028.13.032.265.011.396 0 .627-.295 1.055-.836 1.02a16.187 16.187 0 0 1-3.322-.51c-1.548-.48-2.2-1.626-2.2-3.465v-5.095c0-.906.036-.84-.7-.85-.65 0-.923-.29-.963-.922-.044-.76.251-1.13.915-1.157h.748v-2.415c0-.942.361-1.32 1.175-1.273a.767.767 0 0 1 .377.048c.125.05.236.128.325.228.092.102.165.227.211.365.047.138.067.286.06.434v2.588h3.436c.677 0 .985.33.994 1.018.009.688-.286 1.06-.999 1.07h-2.793l-.639.006Zm-73.265 26.641h-2.788l-.447 1.318h-1.902l2.701-7.466h2.106l2.701 7.466h-1.925l-.446-1.318Zm-.468-1.404-.926-2.734-.914 2.735h1.84Zm10.34 2.722h-1.818l-3.042-4.605v4.605h-1.818v-7.466h1.818l3.042 4.627v-4.627h1.819v7.466h-.001Zm5.967-1.318h-2.787l-.446 1.318h-1.904l2.701-7.466h2.106l2.702 7.466h-1.925l-.447-1.318Zm-.468-1.404-.925-2.734-.915 2.734h1.84Zm5.48 1.32h2.383v1.402h-4.202v-7.466h1.819v6.063Zm9.653-6.064-2.584 5v2.466h-1.82v-2.467l-2.584-4.999h2.064l1.446 3.127 1.436-3.127h2.042Zm6.104 0v1.457h-1.978v6.01h-1.82v-6.01h-1.977v-1.457h5.775Zm2.731 0v7.466h-1.817v-7.466h1.817Zm1.01 3.723c0-.738.16-1.394.478-1.968a3.385 3.385 0 0 1 1.33-1.35c.574-.327 1.223-.49 1.946-.49.887 0 1.645.234 2.276.702.631.468 1.053 1.106 1.266 1.915h-2a1.604 1.604 0 0 0-.638-.713c-.28-.166-.6-.25-.925-.245-.56 0-1.014.195-1.361.585-.348.39-.522.911-.522 1.564 0 .652.174 1.173.522 1.563.347.39.8.585 1.36.585.348 0 .657-.08.926-.245.277-.163.49-.4.638-.712h2c-.213.808-.635 1.446-1.266 1.914-.63.461-1.39.692-2.276.692-.723 0-1.372-.16-1.946-.479a3.478 3.478 0 0 1-1.33-1.35c-.319-.575-.478-1.23-.478-1.968Zm11.111 3.818A3.842 3.842 0 0 1 419.5 46a2.428 2.428 0 0 1-1.042-.787c-.255-.348-.39-.766-.404-1.255h1.936c.028.276.124.49.287.638.163.142.376.213.638.213.27 0 .482-.06.638-.18a.64.64 0 0 0 .234-.522.607.607 0 0 0-.191-.457 1.403 1.403 0 0 0-.458-.298 6.87 6.87 0 0 0-.765-.266 8.428 8.428 0 0 1-1.181-.447 2.182 2.182 0 0 1-.787-.66c-.22-.29-.33-.67-.33-1.137 0-.695.252-1.238.755-1.628.504-.397 1.16-.595 1.968-.595.822 0 1.485.198 1.989.595.503.39.773.936.808 1.638h-1.968c-.014-.24-.102-.429-.265-.563-.163-.142-.373-.213-.628-.213-.22 0-.397.06-.532.18-.134.114-.202.28-.202.5 0 .242.114.43.34.564.227.135.582.28 1.064.436.482.163.872.32 1.17.468.305.15.567.366.787.65.22.283.33.648.33 1.095 0 .425-.11.811-.33 1.16a2.245 2.245 0 0 1-.936.83c-.411.204-.897.307-1.457.307ZM487.208 19.49h9.375c2.456 0 4.411 1.942 4.411 4.322v7.84c0 .725-.581 1.294-1.321 1.294a1.288 1.288 0 0 1-1.294-1.294v-7.84c0-.958-.792-1.734-1.796-1.734h-8.028v9.574c0 .725-.634 1.294-1.321 1.294-.739 0-1.321-.57-1.321-1.294V20.784c0-.725.555-1.268 1.295-1.294Zm56.397 0h10.38c2.403 0 4.332 1.889 4.332 4.244v4.968c0 2.355-1.928 4.244-4.305 4.244h-7.501c-2.403 0-4.332-1.915-4.332-4.244 0-2.38 1.954-4.27 4.358-4.27h9.191v-.697c0-.958-.792-1.71-1.743-1.71h-10.38c-.74 0-1.321-.568-1.321-1.267 0-.698.581-1.268 1.321-1.268Zm1.188 9.212c0 .906.767 1.682 1.718 1.682h7.501c.95 0 1.716-.776 1.716-1.682v-1.708h-9.191c-.977 0-1.744.777-1.744 1.708Z" fill="#505050"/><path fill-rule="evenodd" clip-rule="evenodd" d="M519.327 29.802c.743 0 1.346-.59 1.346-1.319v-7.362c0-1.004-.83-1.817-1.855-1.817h-7.514c-.744 0-1.347.59-1.347 1.319s.603 1.32 1.347 1.32h5.862c.45 0 .814.356.814.796v5.744c0 .728.603 1.319 1.347 1.319Zm-13.104-8.508c-.763 0-1.346.665-1.346 1.441v8.166c0 1.081.81 1.994 1.855 1.994h8.64c.762 0 1.346-.665 1.346-1.441 0-.777-.584-1.443-1.347-1.443h-6.987a.796.796 0 0 1-.749-.488.817.817 0 0 1-.065-.308v-6.48c0-.776-.584-1.441-1.347-1.441Z" fill="#505050"/><path d="M528.67 19.49h6.497c2.377 0 4.279 1.889 4.279 4.192 0 .725-.581 1.269-1.294 1.269a1.261 1.261 0 0 1-1.268-1.27c0-.905-.792-1.654-1.717-1.654h-6.497c-.924 0-1.69.75-1.69 1.655v7.996c0 .698-.581 1.268-1.295 1.268-.713 0-1.295-.57-1.295-1.268v-7.996c0-2.303 1.929-4.192 4.28-4.192ZM491.086 44.3h-2.787l-.447 1.332h-1.905l2.703-7.538h2.107l2.702 7.538h-1.926l-.447-1.332Zm-.468-1.417-.925-2.76-.915 2.76h1.84Zm9.356-2.362c0 .436-.099.837-.298 1.202-.198.358-.503.648-.915.87-.411.222-.922.333-1.532.333h-1.128v2.706h-1.819v-7.538h2.947c.596 0 1.1.104 1.511.312.412.207.72.494.926.859.205.365.308.783.308 1.256Zm-2.883.945c.347 0 .606-.083.777-.247.17-.165.255-.398.255-.698 0-.3-.085-.534-.255-.698-.171-.165-.43-.247-.777-.247h-.99v1.89h.99Zm9.523-.945c0 .436-.1.837-.298 1.202-.199.358-.504.648-.915.87-.412.222-.922.333-1.532.333h-1.128v2.706h-1.82v-7.538h2.948c.595 0 1.099.104 1.51.312.412.207.72.494.926.859.206.365.309.783.309 1.256Zm-2.884.945c.348 0 .607-.083.777-.247.17-.165.255-.398.255-.698 0-.3-.085-.534-.255-.698-.17-.165-.429-.247-.777-.247h-.989v1.89h.989Zm6.533 4.24c-.546 0-1.035-.089-1.468-.268a2.435 2.435 0 0 1-1.043-.794c-.255-.351-.39-.773-.404-1.267h1.936c.029.279.124.494.288.644.163.143.376.215.638.215.27 0 .482-.061.638-.183a.647.647 0 0 0 .234-.526.602.602 0 0 0-.191-.462 1.416 1.416 0 0 0-.458-.3 6.75 6.75 0 0 0-.766-.269 8.373 8.373 0 0 1-1.181-.45 2.185 2.185 0 0 1-.787-.666c-.22-.294-.33-.677-.33-1.15 0-.7.252-1.248.756-1.642.503-.4 1.159-.601 1.968-.601.823 0 1.486.2 1.99.601.503.394.773.945.808 1.654h-1.968c-.014-.244-.103-.433-.266-.57-.163-.143-.373-.214-.628-.214-.22 0-.397.06-.532.182-.135.115-.202.283-.202.505 0 .243.113.433.34.569.227.136.582.283 1.064.44.483.165.873.322 1.171.473.305.15.567.368.787.655.22.286.33.655.33 1.106 0 .429-.11.82-.33 1.17-.213.35-.525.63-.936.837-.412.208-.897.312-1.458.312Z" fill="#505050"/><mask id="e" style="mask-type:luminance" maskUnits="userSpaceOnUse" x="565" y="0" width="53" height="51"><path d="M565.704 0h51.717v50.668h-51.717V0Z" fill="#fff"/></mask><g mask="url(#e)"><path d="M592.076.843h-.254c-6.661-.086-13.085 2.43-17.858 6.993-4.773 4.565-7.506 10.804-7.597 17.347a23.49 23.49 0 0 0 1.723 9.148 23.812 23.812 0 0 0 5.157 7.804 24.283 24.283 0 0 0 7.804 5.272 24.644 24.644 0 0 0 9.263 1.937l26.217.338.326-23.833c.089-6.543-2.471-12.854-7.118-17.543-4.647-4.688-11-7.374-17.663-7.462V.843Z" fill="#505050"/><path fill-rule="evenodd" clip-rule="evenodd" d="M601.954 17.106c-4.484 0-8.275 2.893-9.515 6.87l-2.886-2.756c-1.78-2.429-4.694-4.011-7.988-4.011-5.42 0-9.812 4.282-9.812 9.564 0 2.42.922 4.63 2.441 6.314l-.008.003 15.749 16.277 26.58.34.297-22.848-7.839-6.925a10.041 10.041 0 0 0-7.019-2.828Z" fill="#000" fill-opacity=".04"/><path opacity=".11" fill-rule="evenodd" clip-rule="evenodd" d="M567.978 34.018a23.34 23.34 0 0 1-1.611-8.838c.091-6.503 2.806-12.705 7.549-17.242a25.312 25.312 0 0 1 17.77-7h.346c6.719.097 12.996 2.722 17.614 7.381 3.389 3.422 5.785 7.805 6.719 12.417-6.524 10.284-17.302 16.956-31.176 16.26-6.021 0-11.857-1.04-17.211-2.978Z" fill="#505050"/><path opacity=".11" fill-rule="evenodd" clip-rule="evenodd" d="M608.93 8.055c-8.048 10.123-20.763 16.686-34.866 16.686-2.713 0-5.22-.228-7.796-.689.444-6.389 3.137-11.472 7.312-15.78 4.745-4.532 11.164-7.2 17.786-7.115h.272c6.496.072 12.713 2.497 17.292 6.898Z" fill="#505050"/><path opacity=".22" fill-rule="evenodd" clip-rule="evenodd" d="M595.638 1.253a32.321 32.321 0 0 1-11.713 10.046 32.006 32.006 0 0 1-14.99 3.434 25.17 25.17 0 0 1 4.91-6.692 25.025 25.025 0 0 1 17.842-7.1h.254c1.221.02 2.507.118 3.697.312Z" fill="#505050"/><path opacity=".55" d="M582.626 27.01h7.944v.622c0 1.417-.17 2.67-.511 3.76-.332 1.01-.892 1.954-1.681 2.834-1.784 1.97-4.055 2.954-6.811 2.954-2.689 0-4.991-.952-6.909-2.857-1.917-1.913-2.876-4.208-2.876-6.886 0-2.735.976-5.055 2.925-6.96 1.951-1.913 4.326-2.87 7.122-2.87 1.503 0 2.906.302 4.208.904 1.246.602 2.47 1.58 3.674 2.93l-2.067 1.942c-1.578-2.06-3.499-3.09-5.765-3.09-2.033 0-3.739.69-5.117 2.065-1.378 1.35-2.067 3.044-2.067 5.08 0 2.1.768 3.829 2.303 5.189 1.436 1.261 2.993 1.891 4.67 1.891 1.427 0 2.709-.471 3.847-1.416 1.137-.952 1.771-2.092 1.904-3.418h-4.793v-2.675Zm9.54.2c0-2.657.993-4.939 2.979-6.846 1.978-1.907 4.354-2.861 7.13-2.861 2.742 0 5.094.962 7.055 2.886 1.97 1.923 2.954 4.233 2.954 6.931 0 2.715-.988 5.017-2.967 6.907-1.986 1.9-4.382 2.85-7.191 2.85-2.486 0-4.716-.844-6.694-2.532-2.177-1.866-3.266-4.31-3.266-7.335Zm2.929.037c0 2.086.715 3.802 2.144 5.147 1.422 1.345 3.063 2.017 4.924 2.017 2.019 0 3.723-.685 5.111-2.054 1.387-1.386 2.081-3.072 2.081-5.061 0-2.013-.686-3.7-2.056-5.062-1.363-1.369-3.051-2.053-5.062-2.053-2.002 0-3.693.684-5.072 2.053-1.38 1.353-2.07 3.024-2.07 5.013Z" fill="#000" fill-opacity=".25"/><path d="M582.245 26.314h7.944v.622c0 1.417-.17 2.67-.511 3.76-.331 1.01-.892 1.954-1.68 2.834-1.785 1.969-4.055 2.954-6.81 2.954-2.69 0-4.993-.952-6.91-2.857-1.918-1.913-2.877-4.209-2.877-6.887 0-2.734.976-5.055 2.926-6.959 1.951-1.913 4.325-2.87 7.122-2.87 1.502 0 2.905.302 4.208.904 1.245.602 2.47 1.58 3.673 2.93l-2.067 1.942c-1.577-2.06-3.499-3.09-5.764-3.09-2.034 0-3.74.689-5.118 2.064-1.377 1.35-2.066 3.045-2.066 5.08 0 2.1.768 3.829 2.303 5.189 1.436 1.261 2.992 1.892 4.669 1.892 1.427 0 2.709-.472 3.847-1.416 1.137-.952 1.773-2.092 1.905-3.418h-4.794v-2.674Zm9.648.305c0-2.658.993-4.94 2.979-6.847 1.978-1.907 4.355-2.86 7.13-2.86 2.742 0 5.094.962 7.055 2.884 1.97 1.924 2.955 4.235 2.955 6.933 0 2.713-.989 5.016-2.967 6.907-1.986 1.899-4.384 2.848-7.192 2.848-2.485 0-4.716-.844-6.694-2.53-2.177-1.867-3.266-4.312-3.266-7.335Zm2.93.035c0 2.088.714 3.803 2.144 5.148 1.42 1.345 3.061 2.017 4.923 2.017 2.019 0 3.723-.685 5.111-2.054 1.388-1.386 2.081-3.072 2.081-5.061 0-2.014-.685-3.7-2.056-5.061-1.363-1.369-3.05-2.054-5.061-2.054-2.002 0-3.694.684-5.073 2.054-1.38 1.353-2.069 3.023-2.069 5.011Z" fill="#000"/></g><path d="M2.396 79.814h10.108c2.648 0 4.755 2.074 4.755 4.617v8.377c0 .774-.626 1.382-1.424 1.382a1.383 1.383 0 0 1-1.395-1.382V84.43c0-1.023-.854-1.852-1.936-1.852H3.848v10.228c0 .774-.684 1.383-1.424 1.383-.797 0-1.424-.608-1.424-1.383v-11.61c0-.774.598-1.354 1.396-1.382Zm60.804 0h11.19c2.592 0 4.67 2.019 4.67 4.534v5.309c0 2.515-2.078 4.533-4.641 4.533h-8.087c-2.591 0-4.67-2.045-4.67-4.533 0-2.544 2.107-4.562 4.699-4.562h9.909v-.747c0-1.022-.854-1.824-1.88-1.824H63.2c-.797 0-1.424-.608-1.424-1.355s.627-1.355 1.424-1.355Zm1.282 9.843c0 .967.825 1.796 1.85 1.796h8.088c1.024 0 1.85-.829 1.85-1.796v-1.825h-9.91c-1.053 0-1.878.83-1.878 1.825Z" fill="#F2F2F2"/><path fill-rule="evenodd" clip-rule="evenodd" d="M37.024 91.03c.802 0 1.452-.63 1.452-1.409v-7.865c0-1.072-.895-1.942-2-1.942h-8.1c-.803 0-1.453.631-1.453 1.41 0 .779.65 1.41 1.453 1.41h6.32c.484 0 .876.381.876.851v6.137c0 .778.65 1.408 1.452 1.408Z" fill="#EB393A"/><path fill-rule="evenodd" clip-rule="evenodd" d="M22.895 81.791c-.822 0-1.452.71-1.452 1.54v8.724c0 1.156.875 2.13 2 2.13h9.315c.823 0 1.453-.553 1.453-1.382 0-.83-.63-1.398-1.453-1.398h-7.534a.865.865 0 0 1-.876-.852v-7.222c0-.83-.63-1.54-1.453-1.54Z" fill="#F2F2F2"/><path d="M47.097 79.814h7.005c2.564 0 4.615 2.019 4.615 4.48 0 .773-.627 1.354-1.396 1.354-.74 0-1.367-.58-1.367-1.355 0-.967-.855-1.77-1.85-1.77h-7.006c-.997 0-1.823.803-1.823 1.77v8.543c0 .746-.626 1.354-1.395 1.354s-1.395-.608-1.395-1.354v-8.543c0-2.46 2.078-4.479 4.612-4.479Z" fill="#F2F2F2"/><path d="M10.435 99.725v7.466H8.593v-4.477l-1.691 4.477H5.417l-1.7-4.488v4.488H1.872v-7.466H4.05l2.12 5.17 2.101-5.17h2.164Zm3.167 0v7.466H11.76v-7.466h1.842Zm4.167 0c.797 0 1.493.156 2.089.468.58.297 1.06.756 1.38 1.319.33.56.494 1.209.494 1.946 0 .73-.165 1.38-.496 1.947a3.304 3.304 0 0 1-1.388 1.318c-.597.312-1.29.468-2.08.468h-2.832v-7.466h2.833Zm-.119 5.892c.697 0 1.239-.188 1.627-.563.387-.376.58-.908.58-1.596 0-.688-.193-1.223-.58-1.606-.388-.383-.93-.574-1.627-.574h-.873v4.34l.873-.001Zm7.944-5.892c.796 0 1.493.156 2.09.468.58.297 1.06.756 1.378 1.319.33.56.496 1.209.496 1.946 0 .73-.166 1.38-.496 1.947a3.305 3.305 0 0 1-1.39 1.318c-.596.312-1.289.468-2.078.468H22.76v-7.466h2.833Zm-.119 5.892c.697 0 1.24-.188 1.626-.563.388-.376.583-.908.583-1.596 0-.688-.195-1.223-.583-1.606-.387-.383-.93-.574-1.626-.574h-.872v4.34l.872-.001Zm6.953.17h2.413v1.404h-4.254v-7.466h1.841v6.062Zm5.133-4.605v1.51h2.467v1.404h-2.467v1.638h2.79v1.457h-4.632v-7.466h4.631v1.457h-2.789Zm14.39-1.457-1.972 7.466h-2.23l-1.205-4.913-1.25 4.913h-2.23l-1.916-7.466h1.97l1.088 5.435 1.347-5.435h2.025l1.292 5.435 1.098-5.435h1.983Zm5.63 6.148H54.76l-.453 1.318h-1.928l2.737-7.466h2.131l2.736 7.466h-1.949l-.452-1.318Zm-.475-1.404-.936-2.734-.927 2.734h1.863Zm7.565 2.722-1.573-2.818h-.441v2.818h-1.842v-7.466h3.092c.595 0 1.101.103 1.519.309.422.205.739.489.946.85.209.355.312.752.312 1.192 0 .496-.143.94-.43 1.33-.28.39-.697.666-1.25.829l1.745 2.956h-2.078Zm-2.015-4.105h1.142c.337 0 .59-.081.754-.245.173-.163.259-.393.259-.69 0-.285-.086-.508-.259-.67-.165-.164-.417-.246-.754-.246h-1.141l-.001 1.851Zm7.027-1.904v1.51h2.466v1.404h-2.466v1.638h2.79v1.457H67.84v-7.466h4.632v1.457h-2.79Z" fill="#EB393A"/><path d="M2.396 18.814h10.108c2.648 0 4.755 2.074 4.755 4.617v8.377c0 .774-.626 1.382-1.424 1.382a1.383 1.383 0 0 1-1.395-1.382V23.43c0-1.023-.854-1.852-1.936-1.852H3.848v10.228c0 .774-.684 1.383-1.424 1.383-.797 0-1.424-.608-1.424-1.383v-11.61c0-.774.598-1.354 1.396-1.382Zm60.804 0h11.19c2.592 0 4.67 2.019 4.67 4.534v5.309c0 2.515-2.078 4.533-4.641 4.533h-8.087c-2.591 0-4.67-2.045-4.67-4.533 0-2.544 2.107-4.562 4.699-4.562h9.909v-.747c0-1.022-.854-1.824-1.88-1.824H63.2c-.797 0-1.424-.608-1.424-1.355s.627-1.355 1.424-1.355Zm1.282 9.843c0 .967.825 1.796 1.85 1.796h8.088c1.024 0 1.85-.829 1.85-1.796v-1.825h-9.91c-1.053 0-1.878.83-1.878 1.825Z" fill="#828282"/><path fill-rule="evenodd" clip-rule="evenodd" d="M37.024 30.03c.802 0 1.452-.63 1.452-1.409v-7.865c0-1.072-.895-1.942-2-1.942h-8.1c-.803 0-1.453.631-1.453 1.41 0 .779.65 1.41 1.453 1.41h6.32c.484 0 .876.381.876.851v6.137c0 .778.65 1.408 1.452 1.408Z" fill="#505050"/><path fill-rule="evenodd" clip-rule="evenodd" d="M22.895 20.791c-.822 0-1.452.71-1.452 1.54v8.724c0 1.156.875 2.13 2 2.13h9.315c.823 0 1.453-.553 1.453-1.382 0-.83-.63-1.398-1.453-1.398h-7.534a.865.865 0 0 1-.876-.852v-7.222c0-.83-.63-1.54-1.453-1.54Z" fill="#828282"/><path d="M47.097 18.814h7.005c2.564 0 4.615 2.019 4.615 4.48 0 .773-.627 1.354-1.396 1.354-.74 0-1.367-.58-1.367-1.355 0-.967-.855-1.77-1.85-1.77h-7.006c-.997 0-1.823.803-1.823 1.77v8.543c0 .746-.626 1.354-1.395 1.354s-1.395-.608-1.395-1.354v-8.543c0-2.46 2.078-4.479 4.612-4.479Z" fill="#828282"/><path d="M10.435 38.725v7.466H8.593v-4.477l-1.691 4.477H5.417l-1.7-4.488v4.488H1.872v-7.466H4.05l2.12 5.17 2.101-5.17h2.164Zm3.167 0v7.466H11.76v-7.466h1.842Zm4.167 0c.797 0 1.493.156 2.089.468.58.297 1.06.756 1.38 1.32.33.56.494 1.208.494 1.945 0 .73-.165 1.38-.496 1.947a3.306 3.306 0 0 1-1.388 1.318c-.597.312-1.29.468-2.08.468h-2.832v-7.466h2.833Zm-.119 5.892c.697 0 1.239-.188 1.627-.563.387-.376.58-.908.58-1.596 0-.688-.193-1.223-.58-1.606-.388-.383-.93-.574-1.627-.574h-.873v4.34h.873Zm7.944-5.892c.796 0 1.493.156 2.09.468a3.32 3.32 0 0 1 1.378 1.32c.33.56.496 1.208.496 1.945 0 .73-.166 1.38-.496 1.947a3.305 3.305 0 0 1-1.39 1.318c-.596.312-1.289.468-2.078.468H22.76v-7.466h2.833Zm-.119 5.892c.697 0 1.24-.188 1.626-.563.388-.376.583-.908.583-1.596 0-.688-.195-1.223-.583-1.606-.387-.383-.93-.574-1.626-.574h-.872v4.34h.872Zm6.953.17h2.413v1.404h-4.254v-7.466h1.841v6.062Zm5.133-4.605v1.51h2.467v1.404h-2.467v1.638h2.79v1.457h-4.632v-7.466h4.631v1.457h-2.789Zm14.39-1.457-1.972 7.466h-2.23l-1.205-4.913-1.25 4.913h-2.23l-1.916-7.466h1.97l1.088 5.435 1.347-5.435h2.025l1.292 5.435 1.098-5.435h1.983Zm5.63 6.148H54.76l-.453 1.318h-1.928l2.737-7.466h2.131l2.736 7.466h-1.949l-.452-1.318Zm-.475-1.404-.936-2.734-.927 2.734h1.863Zm7.565 2.722-1.573-2.818h-.441v2.818h-1.842v-7.466h3.092c.595 0 1.101.103 1.519.31.422.204.739.488.946.85.209.354.312.751.312 1.191 0 .496-.143.94-.43 1.33-.28.39-.697.666-1.25.83l1.745 2.955h-2.078Zm-2.015-4.105h1.142c.337 0 .59-.08.754-.245.173-.163.259-.393.259-.69 0-.285-.086-.508-.259-.67-.165-.164-.417-.246-.754-.246h-1.141l-.001 1.851Zm7.027-1.904v1.51h2.466v1.404h-2.466v1.638h2.79v1.457H67.84v-7.466h4.632v1.457h-2.79Z" fill="#505050"/><defs><clipPath id="c"><path fill="#fff" transform="translate(90 61)" d="M0 0h96v51H0z"/></clipPath><clipPath id="d"><path fill="#fff" transform="translate(90)" d="M0 0h96v51H0z"/></clipPath><linearGradient id="b" x1="578.57" y1="67.442" x2="612.84" y2="111.202" gradientUnits="userSpaceOnUse"><stop stop-color="#FB5657"/><stop offset="1" stop-color="#27609C"/></linearGradient></defs></svg>