<svg width="23" height="22" viewBox="0 0 23 22" fill="none" xmlns="http://www.w3.org/2000/svg">
<g clip-path="url(#clip0_241_20)">
<path d="M22.375 18.8542C22.375 20.5229 21.0229 21.875 19.3542 21.875H3.64583C1.97773 21.875 0.625 20.5229 0.625 18.8542V3.14583C0.625 1.47712 1.97773 0.125 3.64583 0.125H19.3542C21.0229 0.125 22.375 1.47712 22.375 3.14583V18.8542Z" fill="#0078D4"/>
<path d="M4.25 7.97917H7.27083V18.25H4.25V7.97917ZM5.75135 6.77083H5.73444C4.83302 6.77083 4.25 6.099 4.25 5.25981C4.25 4.4025 4.85115 3.75 5.76888 3.75C6.68781 3.75 7.25392 4.4025 7.27083 5.25981C7.27083 6.0984 6.68781 6.77083 5.75135 6.77083ZM18.75 18.25H15.7292V12.7527C15.7292 11.4247 14.9891 10.5185 13.8007 10.5185C12.8938 10.5185 12.4032 11.1299 12.1652 11.7208C12.0782 11.9322 12.1042 12.5171 12.1042 12.8125V18.25H9.08333V7.97917H12.1042V9.55967C12.5398 8.88542 13.2219 7.97917 14.9667 7.97917C17.1284 7.97917 18.7494 9.33854 18.7494 12.3739L18.75 18.25Z" fill="white"/>
</g>
<defs>
<clipPath id="clip0_241_20">
<rect width="23" height="22" fill="white"/>
</clipPath>
</defs>
</svg>
