<svg xmlns="http://www.w3.org/2000/svg" width="16" height="15" fill="none"><path fill="url(#a)" d="M7.674.051h-.076a7.483 7.483 0 0 0-5.33 2.133A7.54 7.54 0 0 0 0 7.475a7.296 7.296 0 0 0 2.053 5.17 7.244 7.244 0 0 0 5.094 2.2l7.824.102.097-7.269a7.542 7.542 0 0 0-2.124-5.35A7.485 7.485 0 0 0 7.674.05Z"/><mask id="c" width="16" height="15" x="0" y="0" maskUnits="userSpaceOnUse" style="mask-type:alpha"><path fill="url(#b)" d="M7.672.051h-.076a7.472 7.472 0 0 0-5.325 2.133A7.544 7.544 0 0 0 .007 7.475a7.303 7.303 0 0 0 2.05 5.17 7.207 7.207 0 0 0 5.089 2.199l7.817.103.097-7.269a7.546 7.546 0 0 0-2.122-5.35A7.474 7.474 0 0 0 7.672.05Z"/></mask><g fill="#F2F2F2" fill-rule="evenodd" clip-rule="evenodd" mask="url(#c)"><path d="M.487 10.168a7.258 7.258 0 0 1-.48-2.695 7.498 7.498 0 0 1 2.25-5.259A7.455 7.455 0 0 1 7.555.08h.104c2.003.03 3.874.83 5.251 2.251a7.641 7.641 0 0 1 2.004 3.787c-1.945 3.137-5.16 5.172-9.296 4.96-1.795 0-3.535-.318-5.131-.909Z" opacity=".11"/><path d="M12.878 2.051A13.46 13.46 0 0 1-.045 6.943C.09 4.989.905 3.435 2.17 2.118 3.608.732 5.552-.084 7.558-.058h.082c1.968.022 3.851.764 5.238 2.11Z" opacity=".11"/><path d="M8.913.042C7.116 2.658 4.151 4.364.831 4.357c-.047 0-.095 0-.142-.002a8.048 8.048 0 0 1 1.513-2.14C3.672.726 5.649-.09 7.696-.059h.079c.376.007.771.038 1.138.1Z" opacity=".22"/></g><defs><linearGradient id="a" x1="3.502" x2="14.127" y1="1.778" y2="14.934" gradientUnits="userSpaceOnUse"><stop stop-color="#FB5657"/><stop offset="1" stop-color="#27609C"/></linearGradient><linearGradient id="b" x1="3.504" x2="14.132" y1="1.778" y2="14.924" gradientUnits="userSpaceOnUse"><stop stop-color="#FB5657"/><stop offset="1" stop-color="#27609C"/></linearGradient></defs></svg>