<svg width="15" height="20" fill="none" xmlns="http://www.w3.org/2000/svg">
  <path d="M11.93 7.183c-1.492-1.158-3.999-2.957-8.187-6.087C3.046.574 1.836.077.89 1.076c-.672.705-.726 1.918.274 2.59 3.26 2.428 5.164 3.835 6.275 4.673C8.46 9.112 8.82 9.39 8.82 9.73c0 .307-.262.672-1.138 1.401-2.051 1.713-5.852 4.425-6.525 4.934-1.085.848-.578 2.002-.139 2.535.769.93 1.782.644 2.319.23 4.74-3.495 7.397-5.345 8.88-6.499 1.548-1.205 1.86-1.664 1.883-2.436.026-.817-.273-1.24-2.17-2.711Z" fill="#fff"/>
</svg>
