<svg width="176" height="31" fill="none" xmlns="http://www.w3.org/2000/svg"><g clip-path="url(#a)"><path fill-rule="evenodd" clip-rule="evenodd" d="m168.357 17.334 5.935 4.522c.389.313.627.701.627 1.165 0 .55-.151 1.015-.465 1.403-.313.389-.703.626-1.254.626-.389 0-.703-.237-1.016-.464l-6.8-5.072 2.973-2.18ZM165.308 11.637l6.562-4.997c.313-.313.778-.464 1.254-.464.551 0 1.016.238 1.405.626.314.389.552.777.552 1.328a.872.872 0 0 1-.238.625c-.152.238-.314.464-.552.626l-5.935 4.522-3.048-2.266ZM124.908 17.485v2.191c.238 1.867 3.362 1.867 4.692 1.867h14.216c1.092 0 1.719.55 1.719 1.64 0 1.09-.627 1.716-1.719 1.716H130.53c-3.989 0-9.449-.777-9.449-5.849v-6.939c0-4.996 5.395-5.773 9.297-5.773h7.341c3.513 0 7.892.777 7.892 5.072v4.284c0 1.165-.627 1.791-1.795 1.791h-16.789v-3.431h14.768v-2.331c0-1.867-2.033-2.105-3.438-2.105h-8.746c-1.481 0-4.692.152-4.692 2.267v2.18l-.011 3.42ZM113.978 23.334c0 1.252-.778 1.716-1.957 1.716-1.178 0-1.957-.55-1.957-1.716V2.442c0-1.251.779-1.715 1.957-1.715 1.179 0 1.957.55 1.957 1.715v20.892ZM82.26 24.899v3.745c0 1.251-.779 1.791-1.957 1.791-1.168 0-1.87-.626-1.87-1.791V11.798c0-4.759 5.156-5.46 8.908-5.46h6.324c3.676 0 9.373.626 9.373 5.385v7.414c0 4.758-4.53 5.697-8.443 5.697H84.443v-3.356H95.07c1.644 0 3.99-.237 3.99-2.341v-7.414c0-2.105-3.514-2.18-4.92-2.18h-7.189c-1.48 0-4.691.151-4.691 2.266V24.9ZM33.114 17.486v1.877c0 2.03 3.362 2.105 4.692 2.105h14.216c1.092 0 1.719.55 1.719 1.64 0 1.09-.627 1.716-1.72 1.716H38.66c-3.99 0-9.45-.777-9.45-5.85v-6.938c0-4.996 5.395-5.773 9.298-5.773h7.34c3.514 0 7.893.777 7.893 5.072v4.284c0 1.165-.627 1.791-1.795 1.791H35.297V13.98h14.768v-2.342c0-1.867-2.032-2.105-3.438-2.105h-8.832c-1.481 0-4.692.152-4.692 2.267v5.687h.01ZM61.86 18.187v-8.58h-1.254c-1.092 0-1.72-.625-1.72-1.715s.628-1.64 1.72-1.64h1.254V2.27c0-1.252.854-1.716 2.032-1.716 1.168 0 1.87.55 1.87 1.716v3.982h6.249c1.092 0 1.643.55 1.643 1.64 0 1.09-.551 1.64-1.643 1.64h-6.249v9.831c0 2.029 3.363 2.104 4.692 2.104h1.168c1.092 0 1.719.55 1.719 1.64 0 1.09-.627 1.716-1.72 1.716h-.313c-3.989 0-9.448-.776-9.448-5.848v-.788ZM22.875 19.827c0 4.133-3.675 5.072-7.189 5.072H1.783c-1.092 0-1.719-.55-1.719-1.64 0-1.09.627-1.716 1.72-1.716h14.453c1.255 0 2.66-.238 2.66-1.716v-1.09c0-1.565-1.87-1.716-3.049-1.716h-7.74c-3.287 0-7.892-.626-7.892-4.834V11.02c0-4.057 4.292-4.683 7.503-4.683h12.886c1.092 0 1.719.55 1.719 1.64 0 1.09-.627 1.64-1.719 1.64H7.015c-.94 0-2.886.076-2.886 1.403v1.09c0 1.565 2.422 1.64 3.514 1.64h7.892c3.362 0 7.34.777 7.34 4.997v1.08Z" fill="#fff"/><path d="M162.685 12.935c-1.492-1.158-3.999-2.956-8.187-6.087-.697-.522-1.907-1.018-2.855-.02-.671.706-.725 1.918.275 2.59 3.261 2.428 5.164 3.836 6.274 4.674 1.023.772 1.384 1.049 1.384 1.389 0 .307-.262.672-1.139 1.402-2.051 1.712-5.851 4.425-6.524 4.934-1.085.847-.578 2.002-.139 2.535.769.93 1.782.643 2.319.229 4.741-3.495 7.397-5.344 8.88-6.499 1.548-1.205 1.86-1.663 1.883-2.436.026-.816-.273-1.24-2.171-2.71Z" fill="#0A85CE"/></g><defs><clipPath id="a"><path fill="#fff" transform="translate(0 .5)" d="M0 0h175.135v30H0z"/></clipPath></defs></svg>