<svg width="30" height="30" viewBox="0 0 30 30" fill="none" xmlns="http://www.w3.org/2000/svg">
<path d="M15.6768 20.0586V28.3683C15.6768 28.9488 16.0494 29.4631 16.6013 29.6458C16.7392 29.6906 16.8808 29.7121 17.0205 29.7121C17.4398 29.7121 17.8447 29.515 18.1027 29.1638L22.9635 22.549L15.6768 20.0586Z" fill="#0F6FA9"/>
<path d="M28.6193 0.670812C28.3414 0.475213 27.9765 0.448813 27.6744 0.606012L0.48701 14.7059C0.165595 14.8727 -0.0241128 15.2135 0.0024704 15.5723C0.030262 15.9323 0.27072 16.2395 0.612677 16.3559L8.17078 18.9215L24.2669 5.25359L11.8115 20.1563L24.4784 24.4559C24.5726 24.4871 24.6717 24.5039 24.7708 24.5039C24.9351 24.5039 25.0983 24.4595 25.2421 24.3731C25.4716 24.2339 25.6275 23.9999 25.6674 23.7371L28.9903 1.53721C29.0398 1.20121 28.8973 0.867611 28.6193 0.670812Z" fill="url(#paint0_linear_193_7)"/>
<defs>
<linearGradient id="paint0_linear_193_7" x1="14.5" y1="0.503906" x2="14.5" y2="24.5039" gradientUnits="userSpaceOnUse">
<stop stop-color="#0A85CE"/>
<stop offset="1" stop-color="#2AAAF7"/>
</linearGradient>
</defs>
</svg>
