<svg width="19" height="20" fill="none" xmlns="http://www.w3.org/2000/svg"><path d="M19 1.617C19 .961 18.468.43 17.812.43H9.5c-.656 0-1.188.531-1.188 1.187v.832c0 .42.167.822.464 1.12l5.242 5.241c.618.618.618 1.621 0 2.24L8.776 16.29c-.297.297-.463.7-.463 1.12v.831c0 .656.531 1.188 1.187 1.188h8.313c.655 0 1.187-.532 1.187-1.188V1.617Z" fill="#0E88D1"/><path d="M7.82 8.742 6.286 7.207a1.187 1.187 0 1 1 1.68-1.68l3.562 3.563a1.183 1.183 0 0 1 0 1.68l-3.562 3.562a1.187 1.187 0 1 1-1.68-1.68l1.536-1.535H1.188a1.188 1.188 0 0 1 0-2.375H7.82Z" fill="#0E88D1"/></svg>